<svg width="165" height="55" viewBox="0 0 165 55" fill="none" xmlns="http://www.w3.org/2000/svg">
<g clip-path="url(#clip0_384_8987)">
<path d="M53.1922 30.0281L53.8459 30.5692V29.3028C53.6189 29.5361 53.401 29.7779 53.1922 30.0281ZM71.2904 34.7283V34.7148C70.4692 33.2114 69.2563 31.9548 67.7787 31.0764L67.7651 31.0679C66.2377 30.1342 64.4738 29.6526 62.6805 29.6799C60.8883 29.6615 59.1269 30.1424 57.5959 31.0679V31.0679C56.1111 31.9513 54.8947 33.2173 54.0757 34.7317C53.2143 36.2922 52.7956 38.0573 52.7956 40.0067C52.7698 41.8415 53.2063 43.6537 54.0655 45.2783C54.8806 46.8215 56.0944 48.1215 57.5823 49.0451H57.5925H57.6027C59.1434 49.9358 60.8979 50.3961 62.6805 50.3774C64.467 50.4051 66.2265 49.9423 67.7651 49.0401C69.2546 48.1185 70.4706 46.8202 71.2887 45.2783C71.2887 45.2783 71.2887 45.2698 71.2887 45.2647C72.1804 43.6515 72.6372 41.8367 72.6148 39.9965C72.6216 38.0522 72.1841 36.2871 71.2904 34.7283V34.7283ZM70.5449 44.8725C69.8 46.2856 68.6895 47.4761 67.3276 48.3215C65.9213 49.1452 64.3129 49.5665 62.6805 49.5388C61.0589 49.5827 59.4582 49.1671 58.0656 48.3408C56.6729 47.5145 55.5459 46.3115 54.8161 44.8725C54.0218 43.3722 53.618 41.6983 53.6416 40.0033C53.6416 38.1773 54.0331 36.5542 54.8161 35.1341C55.5827 33.7289 56.7193 32.5572 58.1046 31.7442C59.4898 30.9312 61.0715 30.5075 62.6805 30.5184C64.3197 30.4917 65.9323 30.9317 67.3276 31.7865C68.6848 32.5932 69.7966 33.75 70.5449 35.1341C71.3619 36.5542 71.7705 38.1773 71.7705 40.0033C71.7935 41.7044 71.3712 43.3823 70.5449 44.8725ZM75.0388 32.8516C73.9782 30.7893 72.3716 29.0532 70.3917 27.8302C68.4171 26.5791 66.1871 25.9535 63.7018 25.9535C61.7718 25.9356 59.8647 26.37 58.1355 27.2216C56.863 27.8374 55.7013 28.657 54.697 29.6477C54.4008 29.9385 54.1171 30.2457 53.8459 30.5692H52.9947V32.904L54.4995 31.1102C55.5966 29.7952 56.964 28.7282 58.51 27.9807C60.1204 27.1863 61.897 26.7808 63.695 26.7972C66.0288 26.7972 68.097 27.3822 69.9269 28.542C71.7778 29.6851 73.2793 31.3085 74.2694 33.2371C75.3503 35.1949 75.9001 37.4368 75.9001 39.983C75.9001 42.5292 75.3043 44.7677 74.1281 46.7576C73.0095 48.7247 71.3913 50.3662 69.435 51.5186H69.4265C67.4604 52.6497 65.2134 53.2246 62.6618 53.2246C60.1459 53.2246 57.9159 52.6514 55.9481 51.5186H55.9396C53.9829 50.3666 52.3647 48.725 51.2465 46.7576C50.1009 44.766 49.5035 42.5123 49.4694 39.9745V39.9644L48.6183 39.9745C48.6523 42.6458 49.2822 45.0466 50.5078 47.1769C51.7002 49.2736 53.4259 51.0225 55.5124 52.249C57.6231 53.4663 60.0063 54.075 62.6618 54.075C65.3513 54.075 67.7515 53.4663 69.8623 52.249C71.9487 51.0225 73.6744 49.2736 74.8669 47.1769C76.1265 45.0466 76.7563 42.6458 76.7563 39.9745C76.7563 37.3032 76.1838 34.9289 75.0388 32.8516V32.8516ZM101.567 51.3327C101.566 51.3265 101.566 51.3202 101.567 51.3141C101.568 50.9391 101.633 50.567 101.759 50.2134C101.696 50.2777 101.631 50.3385 101.565 50.3994C100.913 51.0018 100.186 51.5199 99.403 51.9413V51.9413C97.7756 52.8441 95.8946 53.3057 93.7413 53.3057C91.5284 53.3057 89.5572 52.8458 87.8226 51.9413L87.8056 51.9329C86.1003 50.9804 84.6998 49.57 83.7645 47.8633V47.8532C82.7959 46.0813 82.2903 43.8648 82.2903 41.1665H81.4392C81.4392 43.973 81.9669 46.34 83.0223 48.2674C84.0376 50.1205 85.5602 51.6504 87.4141 52.6802C89.2865 53.6608 91.3973 54.1511 93.7464 54.1511C96.0274 54.1511 98.0531 53.6608 99.8234 52.6802C100.442 52.3456 101.029 51.9557 101.577 51.5153C101.577 51.4612 101.577 51.4054 101.577 51.3462L101.567 51.3327ZM101.567 46.4093V46.0323C101.514 46.1202 101.456 46.2014 101.396 46.2927C100.693 47.2921 99.7438 48.0955 98.6387 48.6258C97.4337 49.2193 96.1023 49.5151 94.7576 49.4881C93.3313 49.5105 91.918 49.2159 90.6211 48.6258C89.3986 48.0201 88.3852 47.0667 87.7103 45.8869C86.9953 44.6358 86.6379 43.0634 86.6379 41.1699H85.7867C85.7867 43.1649 86.1629 44.8894 86.9698 46.3045C87.7279 47.6262 88.8643 48.6942 90.2347 49.3731H90.2432C91.6538 50.017 93.1916 50.3394 94.7439 50.3165C96.2256 50.3497 97.6935 50.0278 99.0234 49.3782V49.3782C99.9892 48.9085 100.852 48.2534 101.561 47.4508C101.752 47.2363 101.928 47.0104 102.091 46.7745L101.567 46.4093ZM105.604 43.8412H105.635V42.9958C105.635 43.2815 105.625 43.5639 105.604 43.8412V43.8412ZM102.418 42.1505V42.9958H103.269V42.1505H102.418ZM122.06 31.7357C123.388 30.9242 124.92 30.5184 126.656 30.5184C129.141 30.5184 131.218 31.3976 132.886 33.1559C133.316 33.6028 133.865 33.9194 134.469 34.0689C134.743 34.1217 135.026 34.1175 135.298 34.0563C135.571 33.9952 135.827 33.8786 136.052 33.7139C136.665 33.2743 137.04 32.7671 137.176 32.1922C137.312 31.6174 137.142 31.0595 136.665 30.5184C135.437 29.0715 133.902 27.9112 132.171 27.1201C130.443 26.3295 128.559 25.931 126.656 25.9535C123.966 25.9535 121.583 26.5622 119.506 27.7795C117.44 28.9527 115.742 30.6737 114.604 32.7502C113.409 34.8804 112.812 37.3151 112.812 40.054C112.812 42.7253 113.407 45.1261 114.599 47.2564C115.803 49.3311 117.527 51.061 119.603 52.2778C121.748 53.4951 124.183 54.1037 126.906 54.1037C130.583 54.1037 133.647 52.971 136.098 50.7054C136.575 50.232 136.779 49.7079 136.711 49.1331C136.643 48.5244 136.319 47.9834 135.741 47.51C135.533 47.3295 135.289 47.1953 135.025 47.1166C134.76 47.0378 134.482 47.0163 134.209 47.0535C133.585 47.1057 132.995 47.3545 132.523 47.7636C131.781 48.3686 130.933 48.8328 130.021 49.1331C129.009 49.4208 127.959 49.5575 126.906 49.5388C125.102 49.5388 123.519 49.1331 122.157 48.3215C120.805 47.4864 119.696 46.3149 118.94 44.9232C118.191 43.503 117.816 41.88 117.816 40.054C117.816 38.1266 118.191 36.4528 118.94 35.0326C119.643 33.6614 120.725 32.5177 122.06 31.7357ZM163.555 49.9953L156.02 41.0346L155.482 40.3972L155.459 40.3702L154.901 39.6989L154.596 39.3371L153.956 38.5763L152.852 37.5619L152.629 37.359L152.264 36.9279L151.704 36.2634L143.894 27.0187C143.66 26.7358 143.364 26.5107 143.027 26.3611C142.691 26.2115 142.324 26.1414 141.956 26.1564C141.205 26.1564 140.645 26.3762 140.269 26.8158C139.89 27.2689 139.706 27.8522 139.758 28.4389C139.805 29.0751 140.056 29.6797 140.475 30.1634L148.329 39.3997L148.889 40.0574L149.36 40.6119L151.199 42.4379L151.476 42.776L151.922 43.3069L152.035 43.4405L152.59 44.1032L160.134 53.0893C160.352 53.3881 160.653 53.6172 161 53.7487C161.313 53.8509 161.641 53.9023 161.971 53.9008C162.271 53.9149 162.57 53.8683 162.852 53.7636C163.133 53.659 163.39 53.4986 163.606 53.2922C163.817 53.109 163.985 52.8827 164.1 52.6288C164.214 52.3748 164.272 52.0994 164.269 51.8213C164.306 51.2126 164.066 50.604 163.555 49.9953ZM151.74 41.9898L151.703 41.9357L151.226 41.2696L150.179 39.8072L149.668 39.092L149.432 39.3862L149.115 39.7801L148.891 40.0591L148.349 40.7353L140.985 49.8939C140.509 50.5025 140.27 51.1112 140.269 51.7198C140.258 52.2943 140.457 52.8532 140.83 53.2922V53.2922C141.047 53.4984 141.304 53.6586 141.585 53.7633C141.865 53.8679 142.165 53.9147 142.465 53.9008C142.812 53.9036 143.155 53.8327 143.472 53.6927C143.789 53.5527 144.073 53.347 144.303 53.0893L151.49 44.11L152.033 43.4337L152.423 42.9451L151.74 41.9898ZM163.353 26.8665C162.978 26.3931 162.417 26.1564 161.668 26.1564C161.316 26.1514 160.968 26.2205 160.646 26.3593C160.299 26.4911 159.997 26.7202 159.778 27.0187L152.799 36.2415L152.273 36.9347L151.749 37.6295L151.563 37.873L153.992 39.9373L154.438 40.3161L155.078 40.8588L155.459 40.3634L155.596 40.1859L155.989 39.6787L163.149 30.3646C163.595 29.8378 163.847 29.176 163.863 28.4879C163.913 27.9019 163.73 27.3199 163.353 26.8665V26.8665Z" fill="white"/>
<path d="M55.0954 53.0034L55.5226 52.2731L55.0954 53.0034ZM47.7859 40.0036V40.0138L48.6371 40.0036H47.7859ZM69.9338 28.5407L70.3628 27.8543L69.9338 28.5407ZM74.2848 33.2408L75.0303 32.8351L74.2848 33.2408ZM74.152 46.7749L74.8907 47.1942L74.152 46.7749ZM69.881 52.2781L70.3083 53.0085L69.881 52.2781ZM69.801 44.4603V44.4738L70.5517 44.8729L69.801 44.4603ZM69.801 35.5402L70.5449 35.1344L69.801 35.5402ZM66.8783 32.4969L67.3158 31.7716L66.8783 32.4969ZM55.9669 51.5528H55.9584L55.1073 53.0136C57.3594 54.3137 59.8923 54.9545 62.684 54.9545V53.2638C60.1647 53.2587 57.9347 52.6856 55.9669 51.5528ZM55.9584 51.5528C54.0017 50.4008 52.3835 48.7592 51.2653 46.7918L50.5266 47.2111L49.7878 47.6304C51.0529 49.8533 52.883 51.7077 55.0954 53.0085L55.5312 52.2832L55.9669 51.5579L55.9584 51.5528ZM49.4882 40.0036V39.9935L47.7859 40.0138C47.8217 42.817 48.4839 45.3598 49.7878 47.6219L50.5266 47.2026L51.2653 46.7833C50.1197 44.7951 49.5222 42.5414 49.4882 40.0036ZM48.6371 40.0036H49.4882V39.9935L48.6371 40.0036ZM57.7611 26.4628L58.1424 27.2185L57.7611 26.4628ZM57.7611 26.4628L58.1424 27.2185L57.7611 26.4628ZM70.8411 27.1137C68.7235 25.773 66.3404 25.1086 63.7019 25.1086V26.7993C66.0357 26.7993 68.1039 27.3842 69.9338 28.5441L70.3713 27.8678L70.3917 27.8357L70.8496 27.1239L70.8411 27.1137ZM75.7776 32.4462C74.6489 30.2587 72.9425 28.4172 70.8411 27.1188H70.8326L70.3832 27.8357L70.3628 27.8678L69.9253 28.5441C71.7762 29.6872 73.2777 31.3106 74.2677 33.2391L75.0218 32.8469L75.7742 32.4546C75.7779 32.4522 75.7814 32.4494 75.7844 32.4462H75.7776ZM69.9338 28.5407L70.3628 27.8543L69.9338 28.5407ZM57.596 31.0581L58.0386 31.7801L57.596 31.0581ZM58.4641 47.5898L58.042 48.305L58.4845 47.6016L58.4641 47.5898ZM66.8902 47.5898L66.8766 47.5983L67.3277 48.3219L66.8902 47.5898ZM66.8766 32.4969L67.3141 31.7716L66.8766 32.4969ZM69.801 44.4536V44.4671L70.5517 44.8661L69.801 44.4536ZM69.801 35.5334L70.5449 35.1344L69.801 35.5334ZM70.5466 44.8661L71.2905 45.2786C71.2905 45.2786 71.2905 45.2702 71.2905 45.2651L70.5466 44.8661ZM74.1537 46.7715L74.8924 47.1908L74.1537 46.7715ZM75.7946 32.453V32.4394L75.0491 32.8452L74.295 33.2374C75.3759 35.1953 75.9257 37.4371 75.9257 39.9833H77.628C77.6262 37.2123 77.0203 34.6914 75.7929 32.4597L75.7946 32.453ZM75.9257 39.9969C75.9257 42.5329 75.3299 44.7816 74.1537 46.7715L74.8873 47.1993L75.621 47.627V47.6185C76.9607 45.3496 77.6228 42.8034 77.6228 39.9969H75.9257ZM74.8873 47.1993L74.1486 46.78C73.0299 48.747 71.4118 50.3885 69.4555 51.541H69.447L69.8828 52.2663L70.3185 52.9916C72.5283 51.6929 74.3565 49.8414 75.621 47.6219V47.6135L74.8873 47.1993ZM69.4555 51.541H69.447C67.4809 52.6721 65.2339 53.2469 62.6823 53.2469V54.9376C65.5063 54.9376 68.0562 54.2968 70.31 52.9967L69.4555 51.541ZM66.8919 47.5898L66.8783 47.5983L67.3277 48.3219L66.8919 47.5898ZM66.8919 47.5898L66.8783 47.5983L67.3277 48.3219L66.8919 47.5898ZM69.8027 44.4536V44.4671L70.5534 44.8661L69.8027 44.4536ZM70.5466 44.8661L71.2905 45.2786C71.2905 45.2786 71.2905 45.2702 71.2905 45.2651L70.5466 44.8661ZM70.5466 44.8661L71.2905 45.2786C71.2905 45.2786 71.2905 45.2702 71.2905 45.2651L70.5466 44.8661ZM66.8783 32.4969L67.3158 31.7716L66.8783 32.4969ZM69.8027 44.4536V44.4671L70.5534 44.8661L69.8027 44.4536ZM69.8027 35.5334L70.5449 35.1344L69.8027 35.5334ZM66.88 32.4902L67.3175 31.7648L66.88 32.4902ZM57.5994 31.048L58.042 31.7699L57.5994 31.048ZM57.5994 31.048L58.042 31.7699L57.5994 31.048ZM58.4675 47.5797L58.0454 48.2948L58.4879 47.5915L58.4675 47.5797ZM58.4675 47.5797L58.0454 48.2948L58.4879 47.5915L58.4675 47.5797ZM86.9937 53.4092H87.0022L87.3835 52.6923L86.9937 53.4092ZM82.2683 48.6617L83.0104 48.2475L82.2683 48.6617ZM86.9733 46.2947L87.7086 45.8687L86.9733 46.2947ZM90.6058 48.66L90.2399 49.387H90.2484L90.6127 48.6228L90.6058 48.66ZM98.2659 47.8755L98.6285 48.5721L98.2659 47.8755ZM101.575 42.1559V43.0012H102.426V42.1559H101.575ZM99.4132 51.9467L99.8286 52.6856L99.4132 51.9467ZM87.8261 51.9467L87.8091 51.9383L87.4124 52.6856L87.3954 52.716L87.0141 53.4329C89.0228 54.4845 91.2697 55.0018 93.7448 55.0018V53.3111C91.5165 53.3095 89.5522 52.8496 87.8176 51.9451L87.8261 51.9467ZM87.8091 51.9383C86.1038 50.9859 84.7032 49.5755 83.7679 47.8688V47.8586L82.2836 48.6871C83.3761 50.6756 85.0125 52.3167 87.0039 53.421L87.4005 52.7126L87.4175 52.6822L87.8312 51.9434L87.8091 51.9383ZM83.7543 47.8569C82.7857 46.0851 82.2802 43.8686 82.2802 41.1702H80.5779C80.5779 44.0799 81.1244 46.594 82.2649 48.6752L83.7594 47.8671L83.7543 47.8569ZM87.1435 27.1644C87.253 27.3881 87.338 27.6227 87.3971 27.8644C87.3413 27.6218 87.2562 27.3867 87.1435 27.1644V27.1644ZM88.4457 45.4612C87.8261 44.3741 87.489 42.9573 87.489 41.1702H85.7868C85.7868 43.1652 86.163 44.8898 86.9699 46.3049L87.7103 45.8873L88.4508 45.4697L88.4457 45.4612ZM90.9837 47.862C89.9204 47.33 89.0392 46.4977 88.4508 45.4697V45.4612L87.7154 45.8873L86.975 46.3049C87.733 47.6265 88.8694 48.6946 90.2399 49.3735L90.6058 48.6465L90.6212 48.6178L91.0008 47.862H90.9837ZM91.0008 47.8705L90.9837 47.862L90.6212 48.6262L90.6058 48.655L90.2399 49.382H90.2484C91.659 50.0258 93.1968 50.3482 94.7491 50.3254V48.6347C93.4581 48.6587 92.1778 48.3977 91.0008 47.8705ZM98.6387 48.6262L98.6115 48.5721L98.2489 47.8755C97.1643 48.4067 95.9666 48.67 94.7576 48.6431V50.3338C96.2361 50.3595 97.6991 50.0319 99.0234 49.3786V49.3786L98.6387 48.6262ZM86.9699 46.3049L87.7052 45.8788L86.9699 46.3049ZM90.2399 49.382H90.2484L90.5888 48.6465L90.2399 49.382ZM99.4047 51.9417L99.8201 52.6805L99.4047 51.9417ZM86.9699 46.3049L87.7052 45.8788L86.9699 46.3049ZM90.2399 49.382H90.2484L90.5888 48.6465L90.2399 49.382ZM99.4047 51.9417L99.8201 52.6805L99.4047 51.9417ZM86.9699 46.3049L87.7052 45.8788L86.9699 46.3049ZM90.2399 49.382H90.2484L90.5888 48.6465L90.2399 49.382ZM99.4047 51.9417L99.8201 52.6805L99.4047 51.9417ZM101.567 46.4097L101.396 46.293L100.695 45.8129C100.074 46.695 99.2341 47.4035 98.2574 47.8705L98.6115 48.5721L98.6387 48.6262L99.0183 49.382H99.0285C99.9944 48.9122 100.857 48.2572 101.567 47.4546C101.757 47.24 101.934 47.0142 102.096 46.7783L101.567 46.4097ZM99.4047 51.9417L99.8201 52.6805L99.4047 51.9417ZM90.2399 49.382H90.2484L90.5888 48.6465L90.2399 49.382ZM86.9699 46.3049L87.7052 45.8788L86.9699 46.3049ZM99.4047 51.9417L99.8201 52.6805L99.4047 51.9417ZM90.2399 49.382H90.2484L90.5888 48.6465L90.2399 49.382ZM86.9699 46.3049L87.7052 45.8788L86.9699 46.3049ZM99.4047 51.9417L99.8201 52.6805L99.4047 51.9417ZM90.2399 49.382H90.2484L90.5888 48.6465L90.2399 49.382ZM86.9699 46.3049L87.7052 45.8788L86.9699 46.3049ZM101.567 42.9962C101.579 44.0024 101.274 44.9872 100.695 45.8129L101.396 46.293L101.567 46.4097V46.0327C102.135 45.119 102.431 44.0635 102.418 42.9894L101.567 42.9962ZM105.604 43.8415H105.635V42.9962C105.635 43.2819 105.625 43.5642 105.604 43.8415V43.8415ZM102.418 42.1508V42.9962H103.269V42.1508H102.418ZM105.604 43.8415H105.635V42.9962C105.635 43.2819 105.625 43.5642 105.604 43.8415V43.8415ZM101.577 51.6712C101.575 51.6368 101.575 51.6024 101.577 51.568C101.575 51.5506 101.575 51.533 101.577 51.5156C101.577 51.4615 101.577 51.4057 101.577 51.3465V51.3296C101.576 51.3235 101.576 51.3172 101.577 51.311C101.578 50.936 101.643 50.564 101.769 50.2104C101.706 50.2746 101.641 50.3355 101.575 50.3964C100.923 50.9988 100.196 51.5169 99.4132 51.9383L99.8218 52.6805L99.866 52.7617L100.23 53.4227C100.757 53.1389 101.262 52.8168 101.74 52.459L101.752 52.4506C101.67 52.2166 101.613 51.9746 101.582 51.7286L101.577 51.6712ZM99.8524 52.765L99.8082 52.6839L99.3928 51.9451C97.7655 52.8479 95.8845 53.3095 93.7312 53.3095V55.0002C96.1364 55.0002 98.3068 54.4828 100.217 53.4261L99.8524 52.765ZM101.582 51.7286C101.606 51.9766 101.657 52.2214 101.732 52.459L101.744 52.4506C101.666 52.2161 101.613 51.9741 101.587 51.7286H101.582ZM101.561 51.3144V51.333C101.561 51.3269 101.561 51.3206 101.561 51.3144ZM101.561 42.1508V46.0394C102.13 45.1258 102.425 44.0703 102.413 42.9962H103.264V42.1508H101.561ZM101.561 46.4097V47.4495C101.752 47.235 101.928 47.0091 102.091 46.7732L101.561 46.4097ZM101.561 50.3998V51.3144C101.563 50.9394 101.628 50.5674 101.754 50.2138C101.698 50.278 101.633 50.3389 101.567 50.3998H101.561ZM105.599 43.8415H105.63V42.9962C105.635 43.2819 105.625 43.5642 105.604 43.8415H105.599ZM105.599 43.8415H105.63V42.9962C105.635 43.2819 105.625 43.5642 105.604 43.8415H105.599ZM105.599 43.8415H105.63V42.9962C105.635 43.2819 105.625 43.5642 105.604 43.8415H105.599ZM105.599 43.8415H105.63V42.9962C105.635 43.2819 105.625 43.5642 105.604 43.8415H105.599ZM105.599 43.8415H105.63V42.9962C105.635 43.2819 105.625 43.5642 105.604 43.8415H105.599ZM105.599 43.8415H105.63V42.9962C105.635 43.2819 105.625 43.5642 105.604 43.8415H105.599ZM105.599 43.8415H105.63V42.9962C105.635 43.2819 105.625 43.5642 105.604 43.8415H105.599ZM105.599 43.8415H105.63V42.9962C105.635 43.2819 105.625 43.5642 105.604 43.8415H105.599ZM105.599 43.8415H105.63V42.9962C105.635 43.2819 105.625 43.5642 105.604 43.8415H105.599ZM105.599 43.8415H105.63V42.9962C105.635 43.2819 105.625 43.5642 105.604 43.8415H105.599ZM105.599 43.8415H105.63V42.9962C105.635 43.2819 105.625 43.5642 105.604 43.8415H105.599ZM105.599 43.8415H105.63V42.9962C105.635 43.2819 105.625 43.5642 105.604 43.8415H105.599ZM108.471 51.3144C108.472 51.3217 108.472 51.3291 108.471 51.3364V51.3144ZM119.168 53.0051L119.59 52.2714L119.168 53.0051ZM113.855 47.6693L114.59 47.2449L113.855 47.6693ZM119.507 27.7799L119.93 28.5136L119.507 27.7799ZM131.809 27.8864L132.158 27.1154L131.809 27.8864ZM136.023 31.0767L136.565 30.6067L136.023 31.0767ZM136.052 33.7176L136.548 34.4057L136.052 33.7176ZM134.275 34.9011H134.297H134.321L134.466 34.0845L134.275 34.9011ZM132.267 33.7447L132.275 33.7531V33.7633L132.878 33.1647L132.267 33.7447ZM122.053 31.7446L122.485 32.4732L122.053 31.7446ZM118.191 45.3158V45.3293L118.918 44.9337L118.191 45.3158ZM121.711 49.0354L122.148 48.31L121.711 49.0354ZM130.026 49.13L130.277 49.9382H130.287H130.295L130.026 49.13ZM131.992 47.1012L132.532 47.7555L131.992 47.1012ZM134.214 47.0471L134.263 47.8924H134.313L134.214 47.0471ZM135.196 48.1528L135.737 47.5002L135.196 48.1528ZM135.877 49.223L136.728 49.125L135.877 49.223ZM136.122 50.7142L136.691 51.3212L136.711 51.3009L136.122 50.7142ZM120.051 51.5494L120.038 51.541L119.615 52.2747L119.193 53.0085C121.479 54.307 124.062 54.946 126.918 54.946V53.2553C124.326 53.2587 122.045 52.6839 120.044 51.5528L120.051 51.5494ZM120.038 51.541C118.096 50.4011 116.483 48.7828 115.355 46.8425C115.355 46.838 115.355 46.8335 115.355 46.829L114.619 47.2534L113.884 47.6777C115.16 49.8766 116.987 51.7102 119.188 53.0001L119.624 52.2747L120.06 51.5494L120.038 51.541ZM115.346 46.829C114.231 44.8424 113.663 42.5904 113.663 40.0544H111.96C111.96 42.8558 112.587 45.4004 113.855 47.6625L114.599 47.2517L115.343 46.8408C115.342 46.8379 115.341 46.8351 115.339 46.8324L115.346 46.829ZM114.611 32.7471L113.867 32.3363C112.59 34.6103 111.96 37.1903 111.96 40.0544H113.663C113.663 37.4405 114.23 35.1513 115.343 33.1614L114.611 32.7471ZM119.513 27.7765L119.089 27.0427H119.081C116.884 28.2929 115.079 30.1236 113.867 32.3312L114.611 32.7421L115.355 33.1529C116.418 31.2107 118.004 29.6012 119.937 28.5052L119.513 27.7765ZM119.089 27.0427H119.081L119.513 27.7714L119.946 28.5001C121.878 27.3673 124.108 26.7908 126.663 26.7908V25.1001C123.835 25.1086 121.302 25.7476 119.083 27.0461L119.089 27.0427ZM132.52 26.3428C130.682 25.5036 128.679 25.0797 126.656 25.1018V26.7925C128.433 26.7701 130.194 27.1415 131.809 27.8796L132.171 27.1137L132.192 27.0698L132.532 26.3478L132.52 26.3428ZM137.305 29.9558C136.001 28.4221 134.374 27.1906 132.539 26.3478H132.527L132.198 27.0748L132.178 27.1188L131.829 27.8898C133.446 28.6327 134.877 29.7209 136.022 31.0767V31.0767L136.565 30.6084L136.663 30.5222L137.307 29.9693L137.305 29.9558ZM118.191 45.3158V45.3293L118.918 44.9337L118.191 45.3158ZM119.507 27.7799L119.93 28.5136L119.507 27.7799ZM121.711 49.0387L122.148 48.3134L121.711 49.0387ZM130.026 49.1334L130.277 49.9416H130.287H130.295L130.026 49.1334ZM131.809 27.8864L132.158 27.1154L131.809 27.8864ZM134.214 47.0539L134.263 47.8992H134.313L134.214 47.0539ZM135.196 48.1528L135.737 47.5002L135.196 48.1528ZM135.877 49.223L136.728 49.125L135.877 49.223ZM118.191 45.3158V45.3293L118.918 44.9337L118.191 45.3158ZM119.507 27.7799L119.93 28.5136L119.507 27.7799ZM121.711 49.0387L122.148 48.3134L121.711 49.0387ZM130.026 49.1334L130.277 49.9416H130.287H130.295L130.026 49.1334ZM131.809 27.8864L132.158 27.1154L131.809 27.8864ZM134.214 47.0539L134.263 47.8992H134.313L134.214 47.0539ZM135.196 48.1528L135.737 47.5002L135.196 48.1528ZM135.877 49.223L136.728 49.125L135.877 49.223ZM118.191 45.3158V45.3293L118.918 44.9337L118.191 45.3158ZM119.507 27.7799L119.93 28.5136L119.507 27.7799ZM121.711 49.0387L122.148 48.3134L121.711 49.0387ZM130.026 49.1334L130.277 49.9416H130.287H130.295L130.026 49.1334ZM131.809 27.8864L132.158 27.1154L131.809 27.8864ZM134.214 47.0539L134.263 47.8992H134.313L134.214 47.0539ZM135.196 48.1528L135.737 47.5002L135.196 48.1528ZM135.877 49.223L136.728 49.125L135.877 49.223ZM118.191 45.3158V45.3293L118.918 44.9337L118.191 45.3158ZM119.507 27.7799L119.93 28.5136L119.507 27.7799ZM121.711 49.0387L122.148 48.3134L121.711 49.0387ZM130.026 49.1334L130.277 49.9416H130.287H130.295L130.026 49.1334ZM131.809 27.8864L132.158 27.1154L131.809 27.8864ZM134.214 47.0539L134.263 47.8992H134.313L134.214 47.0539ZM135.196 48.1528L135.737 47.5002L135.196 48.1528ZM135.877 49.223L136.728 49.125L135.877 49.223ZM118.191 45.3158V45.3293L118.918 44.9337L118.191 45.3158ZM119.507 27.7799L119.93 28.5136L119.507 27.7799ZM121.711 49.0387L122.148 48.3134L121.711 49.0387ZM130.026 49.1334L130.277 49.9416H130.287H130.295L130.026 49.1334ZM131.809 27.8864L132.158 27.1154L131.809 27.8864ZM134.214 47.0539L134.263 47.8992H134.313L134.214 47.0539ZM135.196 48.1528L135.737 47.5002L135.196 48.1528ZM135.877 49.223L136.728 49.125L135.877 49.223ZM118.191 45.3158V45.3293L118.918 44.9337L118.191 45.3158ZM119.507 27.7799L119.93 28.5136L119.507 27.7799ZM121.711 49.0387L122.148 48.3134L121.711 49.0387ZM130.026 49.1334L130.277 49.9416H130.287H130.295L130.026 49.1334ZM131.809 27.8864L132.158 27.1154L131.809 27.8864ZM134.214 47.0539L134.263 47.8992H134.313L134.214 47.0539ZM135.196 48.1528L135.737 47.5002L135.196 48.1528ZM135.877 49.223L136.728 49.125L135.877 49.223ZM118.191 45.3158V45.3293L118.918 44.9337L118.191 45.3158ZM119.507 27.7799L119.93 28.5136L119.507 27.7799ZM121.711 49.0387L122.148 48.3134L121.711 49.0387ZM130.026 49.1334L130.277 49.9416H130.287H130.295L130.026 49.1334ZM131.809 27.8864L132.158 27.1154L131.809 27.8864ZM134.214 47.0539L134.263 47.8992H134.313L134.214 47.0539ZM135.196 48.1528L135.737 47.5002L135.196 48.1528ZM135.877 49.223L136.728 49.125L135.877 49.223ZM118.191 45.3158V45.3293L118.918 44.9337L118.191 45.3158ZM119.507 27.7799L119.93 28.5136L119.507 27.7799ZM121.711 49.0387L122.148 48.3134L121.711 49.0387ZM130.026 49.1334L130.277 49.9416H130.287H130.295L130.026 49.1334ZM131.809 27.8864L132.158 27.1154L131.809 27.8864ZM134.214 47.0539L134.263 47.8992H134.313L134.214 47.0539ZM135.196 48.1528L135.737 47.5002L135.196 48.1528ZM135.877 49.223L136.728 49.125L135.877 49.223ZM118.191 45.3158V45.3293L118.918 44.9337L118.191 45.3158ZM119.507 27.7799L119.93 28.5136L119.507 27.7799ZM121.711 49.0387L122.148 48.3134L121.711 49.0387ZM130.026 49.1334L130.277 49.9416H130.287H130.295L130.026 49.1334ZM131.809 27.8864L132.158 27.1154L131.809 27.8864ZM134.214 47.0539L134.263 47.8992H134.313L134.214 47.0539ZM135.196 48.1528L135.737 47.5002L135.196 48.1528ZM135.877 49.223L136.728 49.125L135.877 49.223ZM118.191 45.3158V45.3293L118.918 44.9337L118.191 45.3158ZM119.507 27.7799L119.93 28.5136L119.507 27.7799ZM121.711 49.0387L122.148 48.3134L121.711 49.0387ZM130.026 49.1334L130.277 49.9416H130.287H130.295L130.026 49.1334ZM131.809 27.8864L132.158 27.1154L131.809 27.8864ZM134.214 47.0539L134.263 47.8992H134.313L134.214 47.0539ZM135.196 48.1528L135.737 47.5002L135.196 48.1528ZM135.877 49.223L136.728 49.125L135.877 49.223ZM118.191 45.3158V45.3293L118.918 44.9337L118.191 45.3158ZM119.507 27.7799L119.93 28.5136L119.507 27.7799ZM121.711 49.0387L122.148 48.3134L121.711 49.0387ZM130.026 49.1334L130.277 49.9416H130.287H130.295L130.026 49.1334ZM131.809 27.8864L132.158 27.1154L131.809 27.8864ZM134.214 47.0539L134.263 47.8992H134.313L134.214 47.0539ZM135.196 48.1528L135.737 47.5002L135.196 48.1528ZM135.877 49.223L136.728 49.125L135.877 49.223ZM118.191 45.3158V45.3293L118.918 44.9337L118.191 45.3158ZM119.507 27.7799L119.93 28.5136L119.507 27.7799ZM121.711 49.0387L122.148 48.3134L121.711 49.0387ZM130.026 49.1334L130.277 49.9416H130.287H130.295L130.026 49.1334ZM131.809 27.8864L132.158 27.1154L131.809 27.8864ZM134.214 47.0539L134.263 47.8992H134.313L134.214 47.0539ZM135.196 48.1528L135.737 47.5002L135.196 48.1528ZM135.877 49.223L136.728 49.125L135.877 49.223ZM118.191 45.3158V45.3293L118.918 44.9337L118.191 45.3158ZM119.507 27.7799L119.93 28.5136L119.507 27.7799ZM121.711 49.0387L122.148 48.3134L121.711 49.0387ZM130.026 49.1334L130.277 49.9416H130.287H130.295L130.026 49.1334ZM131.809 27.8864L132.158 27.1154L131.809 27.8864ZM134.214 47.0539L134.263 47.8992H134.313L134.214 47.0539ZM135.196 48.1528L135.737 47.5002L135.196 48.1528ZM135.877 49.223L136.728 49.125L135.877 49.223ZM137.315 29.9626L136.675 30.5188L136.577 30.605L136.023 31.0767C136.364 31.4639 136.405 31.753 136.345 32.0015L137.174 32.1943L138.003 32.3887C138.218 31.4893 137.92 30.6608 137.309 29.9659L137.315 29.9626ZM135.877 49.2366L136.728 49.1385L135.877 49.2315V49.2366ZM135.201 48.1528L135.742 47.5002L135.196 48.1528H135.201ZM134.26 47.8975H134.309L134.21 47.0522L134.26 47.8975ZM131.815 27.8881L132.164 27.1171L131.802 27.883L131.815 27.8881ZM130.283 49.9416H130.294H130.302L130.033 49.1402L130.283 49.9416ZM121.725 49.0421L122.162 48.3168L121.711 49.0337L121.725 49.0421ZM119.937 28.5136L119.505 27.7849L119.937 28.5136ZM118.197 45.3293L118.924 44.9337L118.191 45.3158L118.197 45.3293ZM135.87 49.2264L136.721 49.1283L135.87 49.2264ZM135.189 48.1562L135.731 47.5036L135.189 48.1562ZM134.207 47.0539L134.256 47.8992H134.306L134.207 47.0539ZM131.809 27.8864L132.158 27.1154L131.809 27.8864ZM130.026 49.1334L130.277 49.9416H130.287H130.295L130.026 49.1334ZM121.711 49.0387L122.148 48.3134L121.711 49.0387ZM119.507 27.7799L119.93 28.5136L119.507 27.7799ZM118.191 45.3158V45.3293L118.918 44.9337L118.191 45.3158ZM135.87 49.2264L136.721 49.1283L135.87 49.2264ZM135.189 48.1562L135.731 47.5036L135.189 48.1562ZM134.207 47.0539L134.256 47.8992H134.306L134.207 47.0539ZM131.809 27.8864L132.158 27.1154L131.809 27.8864ZM130.026 49.1334L130.277 49.9416H130.287H130.295L130.026 49.1334ZM121.711 49.0387L122.148 48.3134L121.711 49.0387ZM119.507 27.7799L119.93 28.5136L119.507 27.7799ZM118.191 45.3158V45.3293L118.918 44.9337L118.191 45.3158ZM135.87 49.2264L136.721 49.1283L135.87 49.2264ZM135.189 48.1562L135.731 47.5036L135.189 48.1562ZM134.207 47.0539L134.256 47.8992H134.306L134.207 47.0539ZM131.809 27.8864L132.158 27.1154L131.809 27.8864ZM130.026 49.1334L130.277 49.9416H130.287H130.295L130.026 49.1334ZM121.711 49.0387L122.148 48.3134L121.711 49.0387ZM119.507 27.7799L119.93 28.5136L119.507 27.7799ZM118.191 45.3158V45.3293L118.918 44.9337L118.191 45.3158ZM135.87 49.2264L136.721 49.1283L135.87 49.2264ZM135.189 48.1562L135.731 47.5036L135.189 48.1562ZM134.207 47.0539L134.256 47.8992H134.306L134.207 47.0539ZM131.809 27.8864L132.158 27.1154L131.809 27.8864ZM130.026 49.1334L130.277 49.9416H130.287H130.295L130.026 49.1334ZM121.711 49.0387L122.148 48.3134L121.711 49.0387ZM119.507 27.7799L119.93 28.5136L119.507 27.7799ZM118.191 45.3158V45.3293L118.918 44.9337L118.191 45.3158ZM135.87 49.2264L136.721 49.1283L135.87 49.2264ZM135.189 48.1562L135.731 47.5036L135.189 48.1562ZM134.207 47.0539L134.256 47.8992H134.306L134.207 47.0539ZM131.809 27.8864L132.158 27.1154L131.809 27.8864ZM130.026 49.1334L130.277 49.9416H130.287H130.295L130.026 49.1334ZM121.711 49.0387L122.148 48.3134L121.711 49.0387ZM119.507 27.7799L119.93 28.5136L119.507 27.7799ZM118.191 45.3158V45.3293L118.918 44.9337L118.191 45.3158ZM135.87 49.2264L136.721 49.1283L135.87 49.2264ZM135.189 48.1562L135.731 47.5036L135.189 48.1562ZM134.207 47.0539L134.256 47.8992H134.306L134.207 47.0539ZM131.809 27.8864L132.158 27.1154L131.809 27.8864ZM130.026 49.1334L130.277 49.9416H130.287H130.295L130.026 49.1334ZM121.711 49.0387L122.148 48.3134L121.711 49.0387ZM119.507 27.7799L119.93 28.5136L119.507 27.7799ZM118.191 45.3158V45.3293L118.918 44.9337L118.191 45.3158ZM135.87 49.2264L136.721 49.1283L135.87 49.2264ZM135.189 48.1562L135.731 47.5036L135.189 48.1562ZM134.207 47.0539L134.256 47.8992H134.306L134.207 47.0539ZM131.809 27.8864L132.158 27.1154L131.809 27.8864ZM130.026 49.1334L130.277 49.9416H130.287H130.295L130.026 49.1334ZM121.711 49.0387L122.148 48.3134L121.711 49.0387ZM119.507 27.7799L119.93 28.5136L119.507 27.7799ZM118.191 45.3158V45.3293L118.918 44.9337L118.191 45.3158ZM135.87 49.2264L136.721 49.1283L135.87 49.2264ZM135.189 48.1562L135.731 47.5036L135.189 48.1562ZM134.207 47.0539L134.256 47.8992H134.306L134.207 47.0539ZM131.809 27.8864L132.158 27.1154L131.809 27.8864ZM130.026 49.1334L130.277 49.9416H130.287H130.295L130.026 49.1334ZM121.711 49.0387L122.148 48.3134L121.711 49.0387ZM119.507 27.7799L119.93 28.5136L119.507 27.7799ZM118.191 45.3158V45.3293L118.918 44.9337L118.191 45.3158ZM135.87 49.2264L136.721 49.1283L135.87 49.2264ZM135.189 48.1562L135.731 47.5036L135.189 48.1562ZM134.207 47.0539L134.256 47.8992H134.306L134.207 47.0539ZM131.809 27.8864L132.158 27.1154L131.809 27.8864ZM130.026 49.1334L130.277 49.9416H130.287H130.295L130.026 49.1334ZM121.711 49.0387L122.148 48.3134L121.711 49.0387ZM119.507 27.7799L119.93 28.5136L119.507 27.7799ZM118.191 45.3158V45.3293L118.918 44.9337L118.191 45.3158ZM135.87 49.2264L136.721 49.1283L135.87 49.2264ZM135.189 48.1562L135.731 47.5036L135.189 48.1562ZM134.207 47.0539L134.256 47.8992H134.306L134.207 47.0539ZM131.809 27.8864L132.158 27.1154L131.809 27.8864ZM130.026 49.1334L130.277 49.9416H130.287H130.295L130.026 49.1334ZM121.711 49.0387L122.148 48.3134L121.711 49.0387ZM119.507 27.7799L119.93 28.5136L119.507 27.7799ZM118.191 45.3158V45.3293L118.918 44.9337L118.191 45.3158ZM135.87 49.2264L136.721 49.1283L135.87 49.2264ZM135.189 48.1562L135.731 47.5036L135.189 48.1562ZM134.207 47.0539L134.256 47.8992H134.306L134.207 47.0539ZM131.809 27.8864L132.158 27.1154L131.809 27.8864ZM130.026 49.1334L130.277 49.9416H130.287H130.295L130.026 49.1334ZM121.711 49.0387L122.148 48.3134L121.711 49.0387ZM119.507 27.7799L119.93 28.5136L119.507 27.7799ZM118.191 45.3158V45.3293L118.918 44.9337L118.191 45.3158ZM135.87 49.2264L136.721 49.1283L135.87 49.2264ZM135.189 48.1562L135.731 47.5036L135.189 48.1562ZM134.207 47.0539L134.256 47.8992H134.306L134.207 47.0539ZM131.809 27.8864L132.158 27.1154L131.809 27.8864ZM130.026 49.1334L130.277 49.9416H130.287H130.295L130.026 49.1334ZM121.711 49.0387L122.148 48.3134L121.711 49.0387ZM119.507 27.7799L119.93 28.5136L119.507 27.7799ZM118.191 45.3158V45.3293L118.918 44.9337L118.191 45.3158ZM137.176 32.1926L136.347 31.9999C136.27 32.3262 136.049 32.6761 135.557 33.0261L136.056 33.7024L136.554 34.3871C137.286 33.863 137.812 33.2036 138.008 32.3752L137.176 32.1926ZM136.052 33.7142L135.557 33.0261C135.429 33.1212 135.283 33.1892 135.127 33.2259C134.972 33.2625 134.81 33.267 134.653 33.2391H134.621L134.473 34.071V34.0862L134.328 34.9028C134.714 34.9743 135.111 34.9662 135.494 34.879C135.877 34.7917 136.238 34.6272 136.554 34.3956L136.052 33.7142ZM134.65 33.2425C134.205 33.1274 133.803 32.89 133.489 32.5578L132.886 33.1563L132.284 33.7548C132.826 34.3127 133.517 34.7071 134.275 34.8926L134.466 34.0845V34.0693L134.662 33.2459L134.65 33.2425ZM133.489 32.5578C131.657 30.6371 129.361 29.6734 126.656 29.6734V31.3641C128.913 31.3641 130.763 32.152 132.273 33.7311L133.513 32.5713L133.489 32.5578ZM121.627 31.0074H121.614L122.506 32.4479C123.686 31.7276 125.059 31.3557 126.656 31.3557V29.665C124.785 29.6734 123.102 30.1096 121.627 31.0074ZM122.06 31.7361L121.627 31.0074H121.614C120.151 31.8705 118.964 33.1273 118.191 34.6323L118.94 35.033L119.694 35.4252C120.322 34.1945 121.291 33.1674 122.487 32.4648L122.06 31.7361ZM118.94 35.033L118.186 34.6407C117.362 36.2046 116.965 38.0221 116.965 40.051H118.667C118.667 38.2335 119.02 36.6983 119.689 35.4218L118.94 35.033ZM118.667 40.0544H116.965C116.965 41.9987 117.365 43.7587 118.186 45.3158L118.919 44.9337L118.94 44.9236L119.694 44.5313C119.021 43.2498 118.672 41.7637 118.672 40.0544H118.667ZM122.594 47.5966C121.379 46.8407 120.382 45.7846 119.701 44.5313C119.697 44.5272 119.694 44.5227 119.692 44.5178L118.94 44.9236L118.919 44.9337L118.192 45.3293C119.019 46.8482 120.23 48.1267 121.706 49.0387L122.157 48.3219L122.608 47.605L122.594 47.5966ZM122.608 47.605L122.594 47.5966L121.719 49.0472C123.231 49.9483 124.969 50.3845 126.906 50.3845V48.6938C125.246 48.6938 123.822 48.3219 122.613 47.605H122.608ZM130.021 49.1267L129.776 48.3219C128.845 48.5849 127.879 48.7091 126.911 48.6905V50.3812C128.049 50.3999 129.183 50.2506 130.277 49.9382L130.021 49.1267ZM132.524 47.7572L131.984 47.1029C131.327 47.6391 130.577 48.0511 129.771 48.3185H129.752L130.29 49.9213C131.3 49.5876 132.239 49.0717 133.06 48.3997V48.3997L132.524 47.7572ZM134.209 47.0471L134.159 46.2017H134.11C133.326 46.2741 132.584 46.5866 131.987 47.0961L132.524 47.7521L133.06 48.4081C133.391 48.1133 133.809 47.9309 134.251 47.8874L134.209 47.0471ZM136.282 46.851C135.986 46.5979 135.64 46.4097 135.265 46.2987C134.891 46.1877 134.497 46.1564 134.11 46.2068L134.209 47.0522L134.308 47.8975C134.465 47.8721 134.627 47.8818 134.781 47.926C134.934 47.9701 135.076 48.0476 135.196 48.1528L135.746 47.507L136.296 46.8611L136.282 46.851ZM136.291 46.851H136.282L135.199 48.1562C135.647 48.5214 135.826 48.8764 135.865 49.2196L136.716 49.1267L137.567 49.0337C137.463 48.168 136.999 47.4444 136.303 46.8645L136.291 46.851ZM137.557 49.0269L136.706 49.125L135.855 49.223C135.889 49.4935 135.814 49.7641 135.514 50.0785L135.492 50.0988L136.095 50.6973L136.107 50.7092L136.696 51.2958C137.332 50.6889 137.664 49.9128 137.562 49.0404L137.557 49.0269ZM136.11 50.7041L136.098 50.6922L135.518 50.0734L135.496 50.0937C133.221 52.1851 130.379 53.2452 126.906 53.2452V54.9359C130.775 54.9359 134.056 53.7372 136.679 51.311L136.11 50.7041ZM160.793 52.5419L160.159 53.066L160.803 52.5588L160.793 52.5419ZM151.827 41.8685L151.8 41.8397L151.703 41.9361L151.202 42.4433L151.74 41.9987L151.853 41.9057L151.827 41.8685ZM148.71 41.1584L148.732 41.1854L148.758 41.2108L149.355 40.6174L148.71 41.1584ZM139.813 30.6963L140.463 30.1502L139.813 30.6963ZM138.909 28.4832L139.748 28.4359L138.909 28.4832ZM143.239 27.5567L143.792 27.0951L143.239 27.5567ZM152.447 37.5183L151.977 37.9089L152.013 37.9511L152.052 37.9866L152.47 37.5369L152.627 37.3678L152.447 37.5183ZM154.574 38.0001L154.534 37.963L153.96 38.5801L154.608 38.0407L154.574 38.0001ZM164.209 49.453L163.676 49.8959L164.219 49.4547L164.209 49.453ZM163.421 51.7743V51.8216H164.272L163.421 51.7743ZM163.029 52.6721L163.018 52.6822L163.006 52.694L163.596 53.2807L163.029 52.6721ZM140.182 53.8386L140.204 53.8657L140.23 53.8911L140.825 53.2976L140.182 53.8386ZM140.32 49.3667L140.962 49.8621L140.32 49.3667ZM149.706 37.6857L149.001 38.5632L149.667 39.0907L150.36 38.6003L149.706 37.6857ZM153.11 42.4551L152.61 42.8085L152.418 42.9455L153.083 43.4713L153.124 43.4205L153.482 42.9742L153.11 42.4551ZM144.303 53.0947L144.918 53.6679L144.941 53.6425L144.964 53.6155L144.303 53.0947ZM155.073 40.8659L154.915 41.0502L154.522 41.5084L155.203 42.09L155.482 41.7248L155.749 41.3866L155.073 40.8659ZM150.869 37.3644L150.395 38.0086L151.003 38.5243L151.555 37.8818L150.869 37.3644ZM159.113 26.4915V26.5017L159.104 26.5101L159.77 27.0089L159.785 27.019L159.113 26.4915ZM160.645 26.3597L160.912 27.1543L160.951 27.1425L160.988 27.1256L160.645 26.3597ZM162.687 27.3893L162.697 27.4011L162.708 27.413L163.346 26.8753L162.687 27.3893ZM163.018 28.446V28.49H163.869L163.018 28.446ZM162.481 29.8476L163.12 30.3294L162.481 29.8476ZM161.278 52.9476L161.007 53.749L160.738 54.5504C161.136 54.6812 161.553 54.7475 161.972 54.7465V53.0558C161.735 53.0577 161.498 53.0211 161.273 52.9476H161.278ZM160.805 52.5622L160.161 53.0694L160.141 53.0863L159.475 53.6138L159.485 53.6273C159.805 54.0472 160.24 54.3665 160.738 54.547L161.007 53.7457L161.278 52.9443C161.085 52.8642 160.919 52.7318 160.799 52.5622H160.805ZM153.145 43.4205L152.634 42.8085L151.853 41.8972L151.74 41.9902L151.202 42.4349L151.086 42.5295L150.547 42.9759L150.572 43.0063L150.938 43.4425L151.495 44.107L152.048 44.7714L159.47 53.6155L159.48 53.629L160.136 53.088L160.156 53.0711L160.789 52.5469L153.145 43.4205ZM151.24 41.27L149.992 40.0374L149.963 40.0087L149.566 40.4043L149.362 40.6072L148.765 41.2006L150.603 43.0266L151.098 42.5329L151.206 42.4281L151.706 41.9209L151.803 41.8245L151.24 41.27ZM149.992 40.0374L149.432 39.3798L149.366 39.3003L148.872 38.7204L141.137 29.6261L141.127 29.6126L140.497 30.1418L140.476 30.1587L139.826 30.7048L147.789 40.0679L148.349 40.7273L148.712 41.1533L149.357 40.6123L149.575 40.428L149.885 40.1693L150.007 40.0662L149.992 40.0374ZM141.125 29.6109C140.827 29.2685 140.648 28.8399 140.614 28.3885V28.3885L139.763 28.4359H139.751L138.912 28.4832C138.967 29.2969 139.284 30.0715 139.816 30.6929L140.478 30.1604L140.499 30.1435L141.139 29.6278L141.125 29.6109ZM140.919 27.3572L140.269 26.8111L139.62 26.265C139.101 26.882 138.846 27.6764 138.909 28.4781L139.748 28.4342H139.76L140.611 28.3902C140.59 28.2063 140.607 28.0202 140.66 27.8428C140.713 27.6654 140.801 27.5003 140.919 27.3572V27.3572ZM139.62 26.265L140.269 26.8111L140.919 27.3572C141.089 27.1594 141.379 26.9971 141.956 26.9971V25.3064C141.035 25.3114 140.201 25.5887 139.62 26.2701V26.265ZM144.557 26.4713C144.243 26.0936 143.846 25.7923 143.396 25.5904C142.947 25.3885 142.457 25.2914 141.964 25.3064V26.9971C142.207 26.9816 142.45 27.0238 142.673 27.1202C142.897 27.2167 143.093 27.3646 143.248 27.5516L143.804 27.0951L143.85 27.0579L143.903 27.014L144.562 26.4763L144.557 26.4713ZM153.255 36.7845L152.799 36.2435L152.237 35.5791L144.562 26.4831L143.895 27.019L143.842 27.063L143.796 27.1002L143.243 27.5618L151.178 36.9654L151.74 37.6299L151.752 37.6451L151.975 37.9089L152.445 37.5183L152.615 37.3695L153.267 36.8268L153.255 36.7845ZM153.373 36.8927L153.255 36.7845L153.214 36.7473L152.637 37.3678L152.467 37.5166L152.489 37.5352L152.07 37.9849L152.356 38.247L153.357 39.165L153.398 39.2022L153.863 38.7035L153.977 38.5818L154.551 37.9646L153.373 36.8927ZM156.558 40.3485L155.997 39.6824L155.429 39.023L154.608 38.0475L154.574 38.0069L154.534 37.9697L153.364 36.8978L152.853 37.5741L152.717 37.7533L153.836 38.6849L153.311 39.1211L153.345 39.1617L153.994 39.9326L154.928 41.0451L155.495 41.7214L162.909 50.5333L163.561 49.9906L163.681 49.8909L164.214 49.4479L156.558 40.3485ZM143.248 27.5584L143.801 27.0968L143.248 27.5584ZM153.121 42.4568L150.363 38.602L149.709 37.6874L149.005 38.5648L148.874 38.7339L149.367 39.3138L149.434 39.3933L149.994 40.051L149.892 40.1778L149.629 40.5041L150.572 41.8211L151.202 42.4467L151.48 42.7848L151.761 42.4349L152.428 42.9607L152.62 42.8237L153.131 43.4358L153.488 42.9894L153.121 42.4568ZM154.925 41.0519L155.083 40.8676L154.443 40.3249L154.913 39.7145L154.608 39.3527L153.836 38.7052V38.6849L152.724 37.7432L152.344 38.2504L152.058 37.9883L152.477 37.5386L152.455 37.52L151.985 37.9105L151.762 37.6468L151.75 37.6316L151.189 36.9671L150.886 37.3661L150.395 38.0086L151.003 38.5243L154.527 41.5168L155.208 42.0984L155.487 41.7332L154.925 41.0519ZM160.794 52.5486L160.161 53.0728L160.805 52.5655L160.794 52.5486ZM163.029 52.6653L163.018 52.6754L163.006 52.6873L163.596 53.2739L163.029 52.6653ZM143.239 27.5567L143.792 27.0951L143.239 27.5567ZM153.112 42.4551L150.355 38.6003L149.701 37.6857L148.996 38.5632L148.865 38.7322L149.359 39.3121L149.425 39.3916L149.985 40.0493L149.883 40.1761L149.621 40.5024L150.564 41.8194L151.194 42.445L151.471 42.7831L151.752 42.4332L152.419 42.959L152.612 42.822L153.122 43.4341L153.48 42.9877L153.112 42.4551ZM154.917 41.0502L155.075 40.8659L154.435 40.3232L154.905 39.7128L154.6 39.351L153.836 38.7052V38.6849L152.724 37.7432L152.344 38.2504L152.058 37.9883L152.477 37.5386L152.455 37.52L151.985 37.9105L151.762 37.6468L151.75 37.6316L151.189 36.9671L150.886 37.3661L150.395 38.0086L151.003 38.5243L154.527 41.5168L155.208 42.0984L155.487 41.7332L154.917 41.0502ZM160.794 52.5486L160.161 53.0728L160.805 52.5655L160.794 52.5486ZM163.029 52.6653L163.018 52.6754L163.006 52.6873L163.596 53.2739L163.029 52.6653ZM143.239 27.5567L143.792 27.0951L143.239 27.5567ZM153.112 42.4551L150.355 38.6003L149.701 37.6857L148.996 38.5632L148.865 38.7322L149.359 39.3121L149.425 39.3916L149.985 40.0493L149.883 40.1761L149.621 40.5024L150.564 41.8194L151.194 42.445L151.471 42.7831L151.752 42.4332L152.419 42.959L152.612 42.822L153.122 43.4341L153.48 42.9877L153.112 42.4551ZM154.917 41.0502L155.075 40.8659L154.435 40.3232L154.905 39.7128L154.6 39.351L153.836 38.7052V38.6849L152.724 37.7432L152.344 38.2504L152.058 37.9883L152.477 37.5386L152.455 37.52L151.985 37.9105L151.762 37.6468L151.75 37.6316L151.189 36.9671L150.886 37.3661L150.395 38.0086L151.003 38.5243L154.527 41.5168L155.208 42.0984L155.487 41.7332L154.917 41.0502ZM160.794 52.5486L160.161 53.0728L160.805 52.5655L160.794 52.5486ZM163.029 52.6653L163.018 52.6754L163.006 52.6873L163.596 53.2739L163.029 52.6653ZM143.239 27.5567L143.792 27.0951L143.239 27.5567ZM153.112 42.4551L150.355 38.6003L149.701 37.6857L148.996 38.5632L148.865 38.7322L149.359 39.3121L149.425 39.3916L149.985 40.0493L149.883 40.1761L149.621 40.5024L150.564 41.8194L151.194 42.445L151.471 42.7831L151.752 42.4332L152.419 42.959L152.612 42.822L153.122 43.4341L153.48 42.9877L153.112 42.4551ZM154.917 41.0502L155.075 40.8659L154.435 40.3232L154.905 39.7128L154.6 39.351L153.836 38.7052V38.6849L152.724 37.7432L152.344 38.2504L152.058 37.9883L152.477 37.5386L152.455 37.52L151.985 37.9105L151.762 37.6468L151.75 37.6316L151.189 36.9671L150.886 37.3661L150.395 38.0086L151.003 38.5243L154.527 41.5168L155.208 42.0984L155.487 41.7332L154.917 41.0502ZM160.794 52.5486L160.161 53.0728L160.805 52.5655L160.794 52.5486ZM163.029 52.6653L163.018 52.6754L163.006 52.6873L163.596 53.2739L163.029 52.6653ZM143.239 27.5567L143.792 27.0951L143.239 27.5567ZM153.112 42.4551L150.355 38.6003L149.701 37.6857L148.996 38.5632L148.865 38.7322L149.359 39.3121L149.425 39.3916L149.985 40.0493L149.883 40.1761L149.621 40.5024L150.564 41.8194L151.194 42.445L151.471 42.7831L151.752 42.4332L152.419 42.959L152.612 42.822L153.122 43.4341L153.48 42.9877L153.112 42.4551ZM154.917 41.0502L155.075 40.8659L154.435 40.3232L154.905 39.7128L154.6 39.351L153.836 38.7052V38.6849L152.724 37.7432L152.344 38.2504L152.058 37.9883L152.477 37.5386L152.455 37.52L151.985 37.9105L151.762 37.6468L151.75 37.6316L151.189 36.9671L150.886 37.3661L150.395 38.0086L151.003 38.5243L154.527 41.5168L155.208 42.0984L155.487 41.7332L154.917 41.0502ZM160.794 52.5486L160.161 53.0728L160.805 52.5655L160.794 52.5486ZM163.029 52.6653L163.018 52.6754L163.006 52.6873L163.596 53.2739L163.029 52.6653ZM143.239 27.5567L143.792 27.0951L143.239 27.5567ZM153.112 42.4551L150.355 38.6003L149.701 37.6857L148.996 38.5632L148.865 38.7322L149.359 39.3121L149.425 39.3916L149.985 40.0493L149.883 40.1761L149.621 40.5024L150.564 41.8194L151.194 42.445L151.471 42.7831L151.752 42.4332L152.419 42.959L152.612 42.822L153.122 43.4341L153.48 42.9877L153.112 42.4551ZM154.917 41.0502L155.075 40.8659L154.435 40.3232L154.905 39.7128L154.6 39.351L153.836 38.7052V38.6849L152.724 37.7432L152.344 38.2504L152.058 37.9883L152.477 37.5386L152.455 37.52L151.985 37.9105L151.762 37.6468L151.75 37.6316L151.189 36.9671L150.886 37.3661L150.395 38.0086L151.003 38.5243L154.527 41.5168L155.208 42.0984L155.487 41.7332L154.917 41.0502ZM160.794 52.5486L160.161 53.0728L160.805 52.5655L160.794 52.5486ZM163.029 52.6653L163.018 52.6754L163.006 52.6873L163.596 53.2739L163.029 52.6653ZM143.239 27.5567L143.792 27.0951L143.239 27.5567ZM153.112 42.4551L150.355 38.6003L149.701 37.6857L148.996 38.5632L148.865 38.7322L149.359 39.3121L149.425 39.3916L149.985 40.0493L149.883 40.1761L149.621 40.5024L150.564 41.8194L151.194 42.445L151.471 42.7831L151.752 42.4332L152.419 42.959L152.612 42.822L153.122 43.4341L153.48 42.9877L153.112 42.4551ZM154.917 41.0502L155.075 40.8659L154.435 40.3232L154.905 39.7128L154.6 39.351L153.836 38.7052V38.6849L152.724 37.7432L152.344 38.2504L152.058 37.9883L152.477 37.5386L152.455 37.52L151.985 37.9105L151.762 37.6468L151.75 37.6316L151.189 36.9671L150.886 37.3661L150.395 38.0086L151.003 38.5243L154.527 41.5168L155.208 42.0984L155.487 41.7332L154.917 41.0502ZM160.794 52.5486L160.161 53.0728L160.805 52.5655L160.794 52.5486ZM163.029 52.6653L163.018 52.6754L163.006 52.6873L163.596 53.2739L163.029 52.6653ZM143.239 27.5567L143.792 27.0951L143.239 27.5567ZM153.112 42.4551L150.355 38.6003L149.701 37.6857L148.996 38.5632L148.865 38.7322L149.359 39.3121L149.425 39.3916L149.985 40.0493L149.883 40.1761L149.621 40.5024L150.564 41.8194L151.194 42.445L151.471 42.7831L151.752 42.4332L152.419 42.959L152.612 42.822L153.122 43.4341L153.48 42.9877L153.112 42.4551ZM154.917 41.0502L155.075 40.8659L154.435 40.3232L154.905 39.7128L154.6 39.351L153.836 38.7052V38.6849L152.724 37.7432L152.344 38.2504L152.058 37.9883L152.477 37.5386L152.455 37.52L151.985 37.9105L151.762 37.6468L151.75 37.6316L151.189 36.9671L150.886 37.3661L150.395 38.0086L151.003 38.5243L154.527 41.5168L155.208 42.0984L155.487 41.7332L154.917 41.0502ZM160.794 52.5486L160.161 53.0728L160.805 52.5655L160.794 52.5486ZM163.029 52.6653L163.018 52.6754L163.006 52.6873L163.596 53.2739L163.029 52.6653ZM143.239 27.5567L143.792 27.0951L143.239 27.5567ZM153.112 42.4551L150.355 38.6003L149.701 37.6857L148.996 38.5632L148.865 38.7322L149.359 39.3121L149.425 39.3916L149.985 40.0493L149.883 40.1761L149.621 40.5024L150.564 41.8194L151.194 42.445L151.471 42.7831L151.752 42.4332L152.419 42.959L152.612 42.822L153.122 43.4341L153.48 42.9877L153.112 42.4551ZM154.917 41.0502L155.075 40.8659L154.435 40.3232L154.905 39.7128L154.6 39.351L153.836 38.7052V38.6849L152.724 37.7432L152.344 38.2504L152.058 37.9883L152.477 37.5386L152.455 37.52L151.985 37.9105L151.762 37.6468L151.75 37.6316L151.189 36.9671L150.886 37.3661L150.395 38.0086L151.003 38.5243L154.527 41.5168L155.208 42.0984L155.487 41.7332L154.917 41.0502ZM160.794 52.5486L160.161 53.0728L160.805 52.5655L160.794 52.5486ZM163.029 52.6653L163.018 52.6754L163.006 52.6873L163.596 53.2739L163.029 52.6653ZM143.239 27.5567L143.792 27.0951L143.239 27.5567ZM153.112 42.4551L150.355 38.6003L149.701 37.6857L148.996 38.5632L148.865 38.7322L149.359 39.3121L149.425 39.3916L149.985 40.0493L149.883 40.1761L149.621 40.5024L150.564 41.8194L151.194 42.445L151.471 42.7831L151.752 42.4332L152.419 42.959L152.612 42.822L153.122 43.4341L153.48 42.9877L153.112 42.4551ZM154.917 41.0502L155.075 40.8659L154.435 40.3232L154.905 39.7128L154.6 39.351L153.836 38.7052V38.6849L152.724 37.7432L152.344 38.2504L152.058 37.9883L152.477 37.5386L152.455 37.52L151.985 37.9105L151.762 37.6468L151.75 37.6316L151.189 36.9671L150.886 37.3661L150.395 38.0086L151.003 38.5243L154.527 41.5168L155.208 42.0984L155.487 41.7332L154.917 41.0502ZM160.794 52.5486L160.161 53.0728L160.805 52.5655L160.794 52.5486ZM163.029 52.6653L163.018 52.6754L163.006 52.6873L163.596 53.2739L163.029 52.6653ZM143.239 27.5567L143.792 27.0951L143.239 27.5567ZM153.112 42.4551L150.355 38.6003L149.701 37.6857L148.996 38.5632L148.865 38.7322L149.359 39.3121L149.425 39.3916L149.985 40.0493L149.883 40.1761L149.621 40.5024L150.564 41.8194L151.194 42.445L151.471 42.7831L151.752 42.4332L152.419 42.959L152.612 42.822L153.122 43.4341L153.48 42.9877L153.112 42.4551ZM154.917 41.0502L155.075 40.8659L154.435 40.3232L154.905 39.7128L154.6 39.351L153.836 38.7052V38.6849L152.724 37.7432L152.344 38.2504L152.058 37.9883L152.477 37.5386L152.455 37.52L151.985 37.9105L151.762 37.6468L151.75 37.6316L151.189 36.9671L150.886 37.3661L150.395 38.0086L151.003 38.5243L154.527 41.5168L155.208 42.0984L155.487 41.7332L154.917 41.0502ZM160.794 52.5486L160.161 53.0728L160.805 52.5655L160.794 52.5486ZM163.029 52.6653L163.018 52.6754L163.006 52.6873L163.596 53.2739L163.029 52.6653ZM143.239 27.5567L143.792 27.0951L143.239 27.5567ZM153.112 42.4551L150.355 38.6003L149.701 37.6857L148.996 38.5632L148.865 38.7322L149.359 39.3121L149.425 39.3916L149.985 40.0493L149.883 40.1761L149.621 40.5024L150.564 41.8194L151.194 42.445L151.471 42.7831L151.752 42.4332L152.419 42.959L152.612 42.822L153.122 43.4341L153.48 42.9877L153.112 42.4551ZM154.917 41.0502L155.075 40.8659L154.406 40.3587L154.435 40.3215L154.905 39.7111L154.6 39.3493L153.836 38.7052V38.6849L152.724 37.7432L152.344 38.2504L152.058 37.9883L152.477 37.5386L152.455 37.52L151.985 37.9105L151.762 37.6468L151.75 37.6316L151.189 36.9671L150.886 37.3661L150.395 38.0086L151.003 38.5243L154.527 41.5168L155.208 42.0984L155.487 41.7332L154.917 41.0502ZM160.794 52.5486L160.161 53.0728L160.805 52.5655L160.794 52.5486ZM163.029 52.6653L163.018 52.6754L163.006 52.6873L163.596 53.2739L163.029 52.6653ZM143.239 27.5567L143.792 27.0951L143.239 27.5567ZM153.112 42.4551L150.355 38.6003L149.701 37.6857L148.996 38.5632L148.865 38.7322L149.359 39.3121L149.425 39.3916L149.985 40.0493L149.883 40.1761L149.621 40.5024L150.564 41.8194L151.194 42.445L151.471 42.7831L151.752 42.4332L152.419 42.959L152.612 42.822L153.122 43.4341L153.48 42.9877L153.112 42.4551ZM154.917 41.0502L155.075 40.8659L154.406 40.3587L154.435 40.3215L154.905 39.7111L154.6 39.3493L153.836 38.7052V38.6849L152.724 37.7432L152.344 38.2504L152.058 37.9883L152.477 37.5386L152.455 37.52L151.985 37.9105L151.762 37.6468L151.75 37.6316L151.189 36.9671L150.886 37.3661L150.395 38.0086L151.003 38.5243L154.527 41.5168L155.208 42.0984L155.487 41.7332L154.917 41.0502ZM160.794 52.5486L160.161 53.0728L160.805 52.5655L160.794 52.5486ZM163.029 52.6653L163.018 52.6754L163.006 52.6873L163.596 53.2739L163.029 52.6653ZM164.211 49.453L163.676 49.8942L163.555 49.994L162.902 50.535C163.317 51.0304 163.438 51.4345 163.412 51.7709V51.8183H164.264L165.115 51.8656C165.116 51.8498 165.116 51.834 165.115 51.8183C165.156 50.9594 164.807 50.1631 164.219 49.4547L164.211 49.453ZM163.019 52.6805L163.007 52.6923L163.598 53.279L163.031 52.6704L163.019 52.6805ZM160.789 52.5486L160.156 53.0728L160.799 52.5655L160.789 52.5486ZM154.92 41.0519L155.078 40.8676L154.409 40.3604L154.438 40.3232L154.908 39.7128L154.603 39.351L153.836 38.7052V38.6849L152.724 37.7432L152.344 38.2504L152.058 37.9883L152.477 37.5386L152.455 37.52L151.985 37.9105L151.762 37.6468L151.75 37.6316L151.189 36.9671L150.886 37.3661L150.395 38.0086L151.003 38.5243L154.527 41.5168L155.208 42.0984L155.487 41.7332L154.92 41.0569V41.0519ZM150.36 38.6003L149.706 37.6857L149.001 38.5632L148.87 38.7322L149.364 39.3121L149.43 39.3916L149.99 40.0493L149.888 40.1761L149.626 40.5024L150.569 41.8194L151.199 42.445L151.476 42.7831L151.757 42.4332L152.424 42.959L152.617 42.822L153.127 43.4341L153.485 42.9877L153.114 42.4687L150.36 38.6003ZM143.241 27.5601L143.794 27.0985L143.237 27.555L143.241 27.5601ZM163.028 52.6721L163.016 52.6822L163.004 52.694L163.595 53.2807L163.028 52.6721ZM160.794 52.5486L160.161 53.0728L160.805 52.5655L160.794 52.5486ZM154.922 41.0519L155.08 40.8676L154.411 40.3604L154.44 40.3232L154.91 39.7128L154.605 39.351L153.836 38.7052V38.6849L152.724 37.7432L152.344 38.2504L152.058 37.9883L152.477 37.5386L152.455 37.52L151.985 37.9105L151.762 37.6468L151.75 37.6316L151.189 36.9671L150.886 37.3661L150.395 38.0086L151.003 38.5243L154.527 41.5168L155.208 42.0984L155.487 41.7332L154.922 41.0519ZM153.117 42.4568L150.36 38.602L149.706 37.6874L149.001 38.5648L148.87 38.7339L149.364 39.3138L149.43 39.3933L149.99 40.051L149.888 40.1778L149.626 40.5041L150.569 41.8211L151.199 42.4467L151.476 42.7848L151.757 42.4349L152.424 42.9607L152.617 42.8237L153.127 43.4358L153.485 42.9894L153.117 42.4568ZM143.244 27.5584L143.798 27.0968L143.244 27.5584ZM163.028 52.6721L163.016 52.6822L163.004 52.694L163.595 53.2807L163.028 52.6721ZM160.794 52.5486L160.161 53.0728L160.805 52.5655L160.794 52.5486ZM154.922 41.0519L155.08 40.8676L154.44 40.3249L154.91 39.7145L154.605 39.3527L153.836 38.7052V38.6849L152.724 37.7432L152.344 38.2504L152.058 37.9883L152.477 37.5386L152.455 37.52L151.985 37.9105L151.762 37.6468L151.75 37.6316L151.189 36.9671L150.886 37.3661L150.395 38.0086L151.003 38.5243L154.527 41.5168L155.208 42.0984L155.487 41.7332L154.922 41.0519ZM153.117 42.4568L150.36 38.602L149.706 37.6874L149.001 38.5648L148.87 38.7339L149.364 39.3138L149.43 39.3933L149.99 40.051L149.888 40.1778L149.626 40.5041L150.569 41.8211L151.199 42.4467L151.476 42.7848L151.757 42.4349L152.424 42.9607L152.617 42.8237L153.127 43.4358L153.485 42.9894L153.117 42.4568ZM143.244 27.5584L143.798 27.0968L143.244 27.5584ZM163.028 52.6721L163.016 52.6822L163.004 52.694L163.595 53.2807L163.028 52.6721ZM160.794 52.5486L160.161 53.0728L160.805 52.5655L160.794 52.5486ZM154.922 41.0519L155.08 40.8676L154.44 40.3249L154.91 39.7145L154.605 39.3527L153.836 38.7052V38.6849L152.724 37.7432L152.344 38.2504L152.058 37.9883L152.477 37.5386L152.455 37.52L151.985 37.9105L151.762 37.6468L151.75 37.6316L151.189 36.9671L150.886 37.3661L150.395 38.0086L151.003 38.5243L154.527 41.5168L155.208 42.0984L155.487 41.7332L154.922 41.0519ZM153.117 42.4568L150.36 38.602L149.706 37.6874L149.001 38.5648L148.87 38.7339L149.364 39.3138L149.43 39.3933L149.99 40.051L149.888 40.1778L149.626 40.5041L150.569 41.8211L151.199 42.4467L151.476 42.7848L151.757 42.4349L152.424 42.9607L152.617 42.8237L153.127 43.4358L153.485 42.9894L153.117 42.4568ZM143.244 27.5584L143.798 27.0968L143.244 27.5584ZM163.028 52.6721L163.016 52.6822L163.004 52.694L163.595 53.2807L163.028 52.6721ZM160.794 52.5486L160.161 53.0728L160.805 52.5655L160.794 52.5486ZM154.922 41.0519L155.08 40.8676L154.44 40.3249L154.91 39.7145L154.605 39.3527L153.836 38.7052V38.6849L152.724 37.7432L152.344 38.2504L152.058 37.9883L152.477 37.5386L152.455 37.52L151.985 37.9105L151.762 37.6468L151.75 37.6316L151.189 36.9671L150.886 37.3661L150.395 38.0086L151.003 38.5243L154.527 41.5168L155.208 42.0984L155.487 41.7332L154.922 41.0519ZM153.117 42.4568L150.36 38.602L149.706 37.6874L149.001 38.5648L148.87 38.7339L149.364 39.3138L149.43 39.3933L149.99 40.051L149.888 40.1778L149.626 40.5041L150.569 41.8211L151.199 42.4467L151.476 42.7848L151.757 42.4349L152.424 42.9607L152.617 42.8237L153.127 43.4358L153.485 42.9894L153.117 42.4568ZM143.244 27.5584L143.798 27.0968L143.244 27.5584ZM163.028 52.6721L163.016 52.6822L163.004 52.694L163.595 53.2807L163.028 52.6721ZM160.794 52.5486L160.161 53.0728L160.805 52.5655L160.794 52.5486ZM154.922 41.0519L155.08 40.8676L154.44 40.3249L154.91 39.7145L154.605 39.3527L153.836 38.7052V38.6849L152.724 37.7432L152.344 38.2504L152.058 37.9883L152.477 37.5386L152.455 37.52L151.985 37.9105L151.762 37.6468L151.75 37.6316L151.189 36.9671L150.886 37.3661L150.395 38.0086L151.003 38.5243L154.527 41.5168L155.208 42.0984L155.487 41.7332L154.922 41.0519ZM153.117 42.4568L150.36 38.602L149.706 37.6874L149.001 38.5648L148.87 38.7339L149.364 39.3138L149.43 39.3933L149.99 40.051L149.888 40.1778L149.626 40.5041L150.569 41.8211L151.199 42.4467L151.476 42.7848L151.757 42.4349L152.424 42.9607L152.617 42.8237L153.127 43.4358L153.485 42.9894L153.117 42.4568ZM143.244 27.5584L143.798 27.0968L143.244 27.5584ZM163.028 52.6721L163.016 52.6822L163.004 52.694L163.595 53.2807L163.028 52.6721ZM160.794 52.5486L160.161 53.0728L160.805 52.5655L160.794 52.5486ZM154.922 41.0519L155.08 40.8676L154.44 40.3249L154.91 39.7145L154.605 39.3527L153.836 38.7052V38.6849L152.724 37.7432L152.344 38.2504L152.058 37.9883L152.477 37.5386L152.455 37.52L151.985 37.9105L151.762 37.6468L151.75 37.6316L151.189 36.9671L150.886 37.3661L150.395 38.0086L151.003 38.5243L154.527 41.5168L155.208 42.0984L155.487 41.7332L154.922 41.0519ZM153.117 42.4568L150.36 38.602L149.706 37.6874L149.001 38.5648L148.87 38.7339L149.364 39.3138L149.43 39.3933L149.99 40.051L149.888 40.1778L149.626 40.5041L150.569 41.8211L151.199 42.4467L151.476 42.7848L151.757 42.4349L152.424 42.9607L152.617 42.8237L153.127 43.4358L153.485 42.9894L153.117 42.4568ZM143.244 27.5584L143.798 27.0968L143.244 27.5584ZM163.028 52.6721L163.016 52.6822L163.004 52.694L163.595 53.2807L163.028 52.6721ZM160.794 52.5486L160.161 53.0728L160.805 52.5655L160.794 52.5486ZM154.922 41.0519L155.08 40.8676L154.44 40.3249L154.91 39.7145L154.605 39.3527L153.836 38.7052V38.6849L152.724 37.7432L152.344 38.2504L152.058 37.9883L152.477 37.5386L152.455 37.52L151.985 37.9105L151.762 37.6468L151.75 37.6316L151.189 36.9671L150.886 37.3661L150.395 38.0086L151.003 38.5243L154.527 41.5168L155.208 42.0984L155.487 41.7332L154.922 41.0519ZM153.117 42.4568L150.36 38.602L149.706 37.6874L149.001 38.5648L148.87 38.7339L149.364 39.3138L149.43 39.3933L149.99 40.051L149.888 40.1778L149.626 40.5041L150.569 41.8211L151.199 42.4467L151.476 42.7848L151.757 42.4349L152.424 42.9607L152.617 42.8237L153.127 43.4358L153.485 42.9894L153.117 42.4568ZM143.244 27.5584L143.798 27.0968L143.244 27.5584ZM163.028 52.6721L163.016 52.6822L163.004 52.694L163.595 53.2807L163.028 52.6721ZM160.794 52.5486L160.161 53.0728L160.805 52.5655L160.794 52.5486ZM154.922 41.0519L155.08 40.8676L154.44 40.3249L154.91 39.7145L154.605 39.3527L153.836 38.7052V38.6849L152.724 37.7432L152.344 38.2504L152.058 37.9883L152.477 37.5386L152.455 37.52L151.985 37.9105L151.762 37.6468L151.75 37.6316L151.189 36.9671L150.886 37.3661L150.395 38.0086L151.003 38.5243L154.527 41.5168L155.208 42.0984L155.487 41.7332L154.922 41.0519ZM153.117 42.4568L150.36 38.602L149.706 37.6874L149.001 38.5648L148.87 38.7339L149.364 39.3138L149.43 39.3933L149.99 40.051L149.888 40.1778L149.626 40.5041L150.569 41.8211L151.199 42.4467L151.476 42.7848L151.757 42.4349L152.424 42.9607L152.617 42.8237L153.127 43.4358L153.485 42.9894L153.117 42.4568ZM143.244 27.5584L143.798 27.0968L143.244 27.5584ZM163.028 52.6721L163.016 52.6822L163.004 52.694L163.595 53.2807L163.028 52.6721ZM160.794 52.5486L160.161 53.0728L160.805 52.5655L160.794 52.5486ZM154.922 41.0519L155.08 40.8676L154.44 40.3249L154.91 39.7145L154.605 39.3527L153.836 38.7052V38.6849L152.724 37.7432L152.344 38.2504L152.058 37.9883L152.477 37.5386L152.455 37.52L151.985 37.9105L151.762 37.6468L151.75 37.6316L151.189 36.9671L150.886 37.3661L150.395 38.0086L151.003 38.5243L154.527 41.5168L155.208 42.0984L155.487 41.7332L154.922 41.0519ZM153.117 42.4568L150.36 38.602L149.706 37.6874L149.001 38.5648L148.87 38.7339L149.364 39.3138L149.43 39.3933L149.99 40.051L149.888 40.1778L149.626 40.5041L150.569 41.8211L151.199 42.4467L151.476 42.7848L151.757 42.4349L152.424 42.9607L152.617 42.8237L153.127 43.4358L153.485 42.9894L153.117 42.4568ZM143.244 27.5584L143.798 27.0968L143.244 27.5584ZM163.028 52.6721L163.016 52.6822L163.004 52.694L163.595 53.2807L163.028 52.6721ZM160.794 52.5486L160.161 53.0728L160.805 52.5655L160.794 52.5486ZM154.922 41.0519L155.08 40.8676L154.44 40.3249L154.91 39.7145L154.605 39.3527L153.836 38.7052V38.6849L152.724 37.7432L152.344 38.2504L152.058 37.9883L152.477 37.5386L152.455 37.52L151.985 37.9105L151.762 37.6468L151.75 37.6316L151.189 36.9671L150.886 37.3661L150.395 38.0086L151.003 38.5243L154.527 41.5168L155.208 42.0984L155.487 41.7332L154.922 41.0519ZM153.117 42.4568L150.36 38.602L149.706 37.6874L149.001 38.5648L148.87 38.7339L149.364 39.3138L149.43 39.3933L149.99 40.051L149.888 40.1778L149.626 40.5041L150.569 41.8211L151.199 42.4467L151.476 42.7848L151.757 42.4349L152.424 42.9607L152.617 42.8237L153.127 43.4358L153.485 42.9894L153.117 42.4568ZM143.244 27.5584L143.798 27.0968L143.244 27.5584ZM163.028 52.6721L163.016 52.6822L163.004 52.694L163.595 53.2807L163.028 52.6721ZM160.794 52.5486L160.161 53.0728L160.805 52.5655L160.794 52.5486ZM154.922 41.0519L155.08 40.8676L154.44 40.3249L154.91 39.7145L154.605 39.3527L153.836 38.7052V38.6849L152.724 37.7432L152.344 38.2504L152.058 37.9883L152.477 37.5386L152.455 37.52L151.985 37.9105L151.762 37.6468L151.75 37.6316L151.189 36.9671L150.886 37.3661L150.395 38.0086L151.003 38.5243L154.527 41.5168L155.208 42.0984L155.487 41.7332L154.922 41.0519ZM153.117 42.4568L150.36 38.602L149.706 37.6874L149.001 38.5648L148.87 38.7339L149.364 39.3138L149.43 39.3933L149.99 40.051L149.888 40.1778L149.626 40.5041L150.569 41.8211L151.199 42.4467L151.476 42.7848L151.757 42.4349L152.424 42.9607L152.617 42.8237L153.127 43.4358L153.485 42.9894L153.117 42.4568ZM143.244 27.5584L143.798 27.0968L143.244 27.5584ZM163.028 52.6721L163.016 52.6822L163.004 52.694L163.595 53.2807L163.028 52.6721ZM160.794 52.5486L160.161 53.0728L160.805 52.5655L160.794 52.5486ZM154.922 41.0519L155.08 40.8676L154.44 40.3249L154.91 39.7145L154.605 39.3527L153.836 38.7052V38.6849L152.724 37.7432L152.344 38.2504L152.058 37.9883L152.477 37.5386L152.455 37.52L151.985 37.9105L151.762 37.6468L151.75 37.6316L151.189 36.9671L150.886 37.3661L150.395 38.0086L151.003 38.5243L154.527 41.5168L155.208 42.0984L155.487 41.7332L154.922 41.0519ZM153.117 42.4568L150.36 38.602L149.706 37.6874L149.001 38.5648L148.87 38.7339L149.364 39.3138L149.43 39.3933L149.99 40.051L149.888 40.1778L149.626 40.5041L150.569 41.8211L151.199 42.4467L151.476 42.7848L151.757 42.4349L152.424 42.9607L152.617 42.8237L153.127 43.4358L153.485 42.9894L153.117 42.4568ZM143.244 27.5584L143.798 27.0968L143.244 27.5584ZM163.419 51.8216C163.421 51.9824 163.387 52.1417 163.32 52.2879C163.253 52.4341 163.153 52.5636 163.029 52.667L163.596 53.2756L163.608 53.2875L164.185 53.908L164.209 53.886C164.494 53.629 164.722 53.3159 164.879 52.9667C165.036 52.6174 165.118 52.2395 165.12 51.8571C165.121 51.8414 165.121 51.8256 165.12 51.8098L163.419 51.8216ZM163.608 53.2925L163.596 53.2807L163.006 52.694C162.784 52.9138 162.471 53.0558 161.972 53.0558V54.7465C162.378 54.7603 162.783 54.6937 163.163 54.5506C163.543 54.4075 163.89 54.1908 164.185 53.913L164.209 53.8911L163.608 53.2925ZM141.457 52.7177L141.433 52.6957L140.832 53.2942L140.236 53.8877C140.531 54.172 140.88 54.3946 141.264 54.5421C141.647 54.6897 142.056 54.7592 142.466 54.7465V53.0558C142.284 53.0691 142.101 53.046 141.927 52.9879C141.754 52.9299 141.594 52.838 141.457 52.7177V52.7177ZM141.457 52.7177C141.227 52.4371 141.106 52.0836 141.116 51.7219H139.414C139.402 52.4966 139.674 53.2494 140.179 53.8403L140.822 53.2993L141.471 52.7532L141.457 52.7177ZM140.985 49.8959L140.955 49.8723L140.313 49.3769C139.751 50.0937 139.418 50.8799 139.418 51.7219H141.12C141.12 51.3482 141.263 50.9205 141.649 50.4234V50.415L140.985 49.8959ZM151.199 42.4399L150.569 41.8144L149.626 40.4973L149.888 40.171L149.99 40.0442L150.179 39.8092L150.331 39.6198L149.669 39.094L149.003 38.5665L148.872 38.7356L148.331 39.4119L147.789 40.0882L140.322 49.387L140.956 49.8942L140.987 49.9179L141.651 50.4454V50.437L148.916 41.3968L150.564 43.0334L150.93 43.4696L151.354 42.9404L151.471 42.7933L151.199 42.4399ZM150.36 38.602L149.667 39.0923L149.364 39.3071L148.972 39.5826L149.114 39.7805L149.565 40.4111L149.578 40.4297L149.626 40.4973L150.569 41.8144L151.08 42.5346V42.5448L151.347 42.9184L151.718 43.4374L151.91 43.3022L152.421 42.9471L152.613 42.8102L153.114 42.4568L150.36 38.602ZM152.424 42.9471L151.757 42.4213L151.476 42.7713L151.359 42.9184L150.942 43.4459L143.668 52.5334L143.644 52.5639L144.303 53.0897L144.964 53.6104L152.048 44.7714L152.59 44.0951L153.09 43.4696L152.424 42.9471ZM144.31 53.0913L143.689 52.5131L143.666 52.5351C143.517 52.7018 143.333 52.8348 143.128 52.9249C142.922 53.015 142.7 53.0603 142.475 53.0575V54.7482C142.938 54.7511 143.397 54.6565 143.82 54.4705C144.244 54.2846 144.623 54.0116 144.933 53.6696L144.31 53.0913ZM155.596 40.1896L154.949 39.6401L154.597 39.3409L153.836 38.7052V38.6849L152.724 37.7432L152.474 37.5369L152.452 37.5183L152.111 37.2309L151.755 37.6451L151.56 37.8733L151.008 38.5158L154.532 41.5084L154.925 41.0502L155.082 40.8659L155.483 40.3976L155.633 40.2285L155.596 40.1896ZM159.778 27.019L159.763 27.0089L159.097 26.5118L152.229 35.5791L151.704 36.2723L151.178 36.9671L150.875 37.3661L151.556 37.8733L152.237 38.3806L152.338 38.247L152.717 37.7398L152.853 37.5606L153.364 36.8843L160.442 27.5398L160.457 27.5212L159.778 27.019ZM160.648 26.3664L160.377 25.565L160.325 25.5836L160.301 25.5938C159.828 25.7816 159.416 26.0944 159.109 26.4983L159.759 27.0157L159.775 27.0258L160.439 27.5533L160.454 27.5347C160.569 27.3726 160.728 27.2456 160.912 27.1678L160.648 26.3664ZM160.323 25.5769L160.299 25.587L160.639 26.3597L160.98 27.1256C161.195 27.0347 161.427 26.9903 161.661 26.9954V25.3047C161.201 25.3034 160.745 25.396 160.323 25.5769V25.5769ZM164.001 26.3208C163.429 25.6124 162.599 25.3064 161.668 25.3064V26.9971C162.223 26.9971 162.507 27.1661 162.689 27.3842L163.348 26.877L163.36 26.8686L164.029 26.3461L164.001 26.3208ZM164.022 26.3445L164.001 26.3208L163.353 26.8669L163.341 26.8753L162.703 27.413C162.821 27.5561 162.909 27.7212 162.962 27.8985C163.015 28.0759 163.032 28.262 163.012 28.446L163.864 28.49L164.715 28.5339C164.715 28.5193 164.715 28.5046 164.715 28.49C164.766 27.7128 164.519 26.9452 164.022 26.3428V26.3445ZM163.012 28.49C162.993 28.9882 162.804 29.4651 162.476 29.8425L163.109 30.3311L163.149 30.3616L163.819 30.8806C164.369 30.2202 164.684 29.3973 164.713 28.5407C164.714 28.526 164.714 28.5114 164.713 28.4967L163.012 28.49ZM160.645 26.3664L160.912 27.1611L160.951 27.1492L160.988 27.1323L160.645 26.3664ZM163.009 28.446V28.49H163.86L163.009 28.446ZM162.687 27.3893L162.697 27.4011L162.708 27.413L163.346 26.8753L162.687 27.3893ZM160.645 26.3664L160.912 27.1611L160.951 27.1492L160.988 27.1323L160.645 26.3664ZM163.009 28.446V28.49H163.86L163.009 28.446ZM162.687 27.3893L162.697 27.4011L162.708 27.413L163.346 26.8753L162.687 27.3893ZM160.645 26.3664L160.912 27.1611L160.951 27.1492L160.988 27.1323L160.645 26.3664ZM163.009 28.446V28.49H163.86L163.009 28.446ZM162.687 27.3893L162.697 27.4011L162.708 27.413L163.346 26.8753L162.687 27.3893ZM160.645 26.3664L160.912 27.1611L160.951 27.1492L160.988 27.1323L160.645 26.3664ZM163.009 28.446V28.49H163.86L163.009 28.446ZM162.687 27.3893L162.697 27.4011L162.708 27.413L163.346 26.8753L162.687 27.3893ZM160.645 26.3664L160.912 27.1611L160.951 27.1492L160.988 27.1323L160.645 26.3664ZM163.009 28.446V28.49H163.86L163.009 28.446ZM162.687 27.3893L162.697 27.4011L162.708 27.413L163.346 26.8753L162.687 27.3893ZM160.645 26.3664L160.912 27.1611L160.951 27.1492L160.988 27.1323L160.645 26.3664ZM163.009 28.446V28.49H163.86L163.009 28.446ZM162.687 27.3893L162.697 27.4011L162.708 27.413L163.346 26.8753L162.687 27.3893ZM160.645 26.3664L160.912 27.1611L160.951 27.1492L160.988 27.1323L160.645 26.3664ZM163.009 28.446V28.49H163.86L163.009 28.446ZM162.687 27.3893L162.697 27.4011L162.708 27.413L163.346 26.8753L162.687 27.3893ZM160.645 26.3664L160.912 27.1611L160.951 27.1492L160.988 27.1323L160.645 26.3664ZM163.009 28.446V28.49H163.86L163.009 28.446ZM162.687 27.3893L162.697 27.4011L162.708 27.413L163.346 26.8753L162.687 27.3893ZM160.645 26.3664L160.912 27.1611L160.951 27.1492L160.988 27.1323L160.645 26.3664ZM163.009 28.446V28.49H163.86L163.009 28.446ZM162.687 27.3893L162.697 27.4011L162.708 27.413L163.346 26.8753L162.687 27.3893ZM160.645 26.3664L160.912 27.1611L160.951 27.1492L160.988 27.1323L160.645 26.3664ZM163.009 28.446V28.49H163.86L163.009 28.446ZM162.687 27.3893L162.697 27.4011L162.708 27.413L163.346 26.8753L162.687 27.3893ZM160.645 26.3664L160.912 27.1611L160.951 27.1492L160.988 27.1323L160.645 26.3664ZM163.009 28.446V28.49H163.86L163.009 28.446ZM162.687 27.3893L162.697 27.4011L162.708 27.413L163.346 26.8753L162.687 27.3893ZM160.645 26.3664L160.912 27.1611L160.951 27.1492L160.988 27.1323L160.645 26.3664ZM162.687 27.3893L162.697 27.4011L162.708 27.413L163.346 26.8753L162.687 27.3893ZM163.018 28.446V28.49H163.869L163.018 28.446ZM160.645 26.3664L160.912 27.1611L160.951 27.1492L160.988 27.1323L160.645 26.3664ZM162.687 27.3893L162.697 27.4011L162.708 27.413L163.346 26.8753L162.687 27.3893ZM163.018 28.49H163.869L163.018 28.446V28.49ZM163.115 30.3362L162.481 29.8476L155.429 39.023L154.608 38.0475L154.574 38.0069L154.534 37.9697L153.364 36.8978L152.853 37.5741L152.717 37.7533L153.836 38.6849L153.851 38.7001L154.605 39.3392L154.91 39.701L154.44 40.3113L154.411 40.3485L155.08 40.8557L155.761 41.363L156.025 41.0248L156.554 40.3367L163.824 30.8688L163.143 30.3616L163.115 30.3362ZM162.708 27.413L163.346 26.8753L162.687 27.3825L162.697 27.3944L162.708 27.413ZM160.959 27.1492L160.997 27.1323L160.657 26.3664L160.924 27.1611L160.959 27.1492ZM163.018 28.446V28.49H163.869L163.018 28.446ZM162.687 27.3893L162.697 27.4011L162.708 27.413L163.346 26.8753L162.687 27.3893ZM160.645 26.3664L160.912 27.1611L160.951 27.1492L160.988 27.1323L160.645 26.3664ZM163.009 28.446V28.49H163.86L163.009 28.446ZM160.645 26.3664L160.912 27.1611L160.951 27.1492L160.988 27.1323L160.645 26.3664ZM162.687 27.3893L162.697 27.4011L162.708 27.413L163.346 26.8753L162.687 27.3893ZM163.018 28.446V28.49H163.869L163.018 28.446ZM160.645 26.3664L160.912 27.1611L160.951 27.1492L160.988 27.1323L160.645 26.3664ZM162.687 27.3893L162.697 27.4011L162.708 27.413L163.346 26.8753L162.687 27.3893ZM163.018 28.446V28.49H163.869L163.018 28.446ZM160.645 26.3664L160.912 27.1611L160.951 27.1492L160.988 27.1323L160.645 26.3664ZM162.687 27.3893L162.697 27.4011L162.708 27.413L163.346 26.8753L162.687 27.3893ZM163.018 28.446V28.49H163.869L163.018 28.446ZM160.645 26.3664L160.912 27.1611L160.951 27.1492L160.988 27.1323L160.645 26.3664ZM162.687 27.3893L162.697 27.4011L162.708 27.413L163.346 26.8753L162.687 27.3893ZM163.018 28.446V28.49H163.869L163.018 28.446ZM160.645 26.3664L160.912 27.1611L160.951 27.1492L160.988 27.1323L160.645 26.3664ZM162.687 27.3893L162.697 27.4011L162.708 27.413L163.346 26.8753L162.687 27.3893ZM163.018 28.446V28.49H163.869L163.018 28.446ZM160.645 26.3664L160.912 27.1611L160.951 27.1492L160.988 27.1323L160.645 26.3664ZM162.687 27.3893L162.697 27.4011L162.708 27.413L163.346 26.8753L162.687 27.3893ZM163.018 28.446V28.49H163.869L163.018 28.446ZM160.645 26.3664L160.912 27.1611L160.951 27.1492L160.988 27.1323L160.645 26.3664ZM162.687 27.3893L162.697 27.4011L162.708 27.413L163.346 26.8753L162.687 27.3893ZM163.018 28.446V28.49H163.869L163.018 28.446ZM160.645 26.3664L160.912 27.1611L160.951 27.1492L160.988 27.1323L160.645 26.3664ZM162.687 27.3893L162.697 27.4011L162.708 27.413L163.346 26.8753L162.687 27.3893ZM163.018 28.446V28.49H163.869L163.018 28.446ZM160.645 26.3664L160.912 27.1611L160.951 27.1492L160.988 27.1323L160.645 26.3664ZM162.687 27.3893L162.697 27.4011L162.708 27.413L163.346 26.8753L162.687 27.3893ZM163.018 28.446V28.49H163.869L163.018 28.446ZM160.645 26.3664L160.912 27.1611L160.951 27.1492L160.988 27.1323L160.645 26.3664ZM162.687 27.3893L162.697 27.4011L162.708 27.413L163.346 26.8753L162.687 27.3893ZM163.018 28.446V28.49H163.869L163.018 28.446ZM160.645 26.3664L160.912 27.1611L160.951 27.1492L160.988 27.1323L160.645 26.3664ZM162.687 27.3893L162.697 27.4011L162.708 27.413L163.346 26.8753L162.687 27.3893ZM163.018 28.446V28.49H163.869L163.018 28.446Z" fill="white"/>
<path d="M71.2956 45.2782L70.5449 44.8792L69.801 44.4667C70.5573 43.1028 70.9428 41.5668 70.9194 40.01C70.9194 38.3193 70.5415 36.8382 69.8061 35.5601L70.5449 35.134L69.7993 35.5398C69.1232 34.2877 68.1178 33.2412 66.8902 32.5117L67.3277 31.7864L66.8766 32.5033C65.6163 31.7328 64.1601 31.3374 62.6805 31.3637C61.1988 31.3466 59.7419 31.7432 58.476 32.5083V32.5083C57.2484 33.2378 56.243 34.2843 55.5669 35.5364C54.8621 36.8179 54.4979 38.2973 54.4979 39.9998C54.4742 41.5556 54.8435 43.0925 55.572 44.4701C56.2423 45.7454 57.2408 46.8217 58.4658 47.5894L58.0436 48.3046L58.4862 47.6012C59.7611 48.3318 61.2105 48.7079 62.6822 48.69C64.1552 48.7177 65.6072 48.3409 66.8783 47.6012L67.3277 48.3215L66.8902 47.5962C68.1198 46.8293 69.122 45.7516 69.7942 44.4734L70.5449 44.8724L71.2888 45.285C70.4732 46.8221 69.2621 48.1172 67.7788 49.0383C66.2402 49.9406 64.4807 50.4034 62.6942 50.3757C60.9116 50.3944 59.1571 49.9341 57.6164 49.0434H57.6062H57.5959C56.1033 48.1221 54.8847 46.8225 54.0655 45.2782C53.2052 43.6551 52.7669 41.8441 52.7905 40.01C52.7905 38.0606 53.2093 36.2904 54.0706 34.735C54.8897 33.2206 56.1061 31.9546 57.5908 31.0713L58.0334 31.7932L57.5959 31.0679C59.1269 30.1423 60.8884 29.6614 62.6805 29.6798C64.4739 29.6526 66.2378 30.1341 67.7651 31.0679L67.7788 31.0763C69.2514 31.9566 70.4594 33.2131 71.2769 34.7147V34.7282C72.1705 36.2871 72.608 38.0522 72.608 40.0032C72.6358 41.8445 72.1837 43.6617 71.2956 45.2782V45.2782Z" fill="white"/>
<path d="M54.4995 31.1104L52.9948 32.9042V30.5693H53.8459L54.4995 31.1104Z" fill="white"/>
<path d="M63.7019 25.1085V26.7992C61.9039 26.7827 60.1273 27.1882 58.5169 27.9826C56.9709 28.7301 55.6035 29.7971 54.5064 31.1121L53.8459 30.5694L53.1923 30.0284C53.4022 29.7782 53.6201 29.5364 53.8459 29.3031C54.1183 29.019 54.4026 28.7468 54.697 28.4899C55.6226 27.6808 56.6531 26.9984 57.7611 26.461L58.1424 27.2168L57.7679 26.4576C59.612 25.552 61.6447 25.0898 63.7019 25.1085V25.1085Z" fill="white"/>
<path d="M108.478 28.6926V51.3141H106.775C106.793 51.7842 106.626 52.2426 106.309 52.5923C106.018 52.8814 105.628 53.0522 105.026 53.0522C104.79 53.0732 104.553 53.0425 104.33 52.9624C104.108 52.8823 103.906 52.7547 103.739 52.5887C103.572 52.4226 103.443 52.222 103.363 52.0012C103.282 51.7804 103.251 51.5447 103.272 51.3107V51.0977C103.845 50.4942 104.35 49.8309 104.779 49.1196V49.1078C105.917 47.2702 106.507 45.1498 106.481 42.9925V42.1472H101.561V28.6926C101.561 28.2418 101.65 27.7953 101.824 27.3789C101.997 26.9624 102.253 26.5843 102.574 26.2664L102.593 26.2478C103.078 25.7733 103.694 25.4519 104.363 25.3238C105.031 25.1957 105.723 25.2668 106.351 25.528C106.98 25.7892 107.516 26.2289 107.893 26.7919C108.271 27.3549 108.472 28.0162 108.473 28.6926H108.478Z" fill="white"/>
<path d="M101.567 47.4492V50.3995C100.914 51.0019 100.188 51.52 99.4047 51.9414C97.7774 52.8442 95.8964 53.3058 93.7431 53.3058C91.5302 53.3058 89.559 52.8459 87.8244 51.9414L87.8073 51.933C86.1021 50.9805 84.7015 49.5701 83.7662 47.8634V47.8533C82.7977 46.0814 82.2921 43.8649 82.2921 41.1666H80.5898V28.6554C80.5898 28.5427 80.5949 28.4362 80.6052 28.3359C80.6052 28.3071 80.6052 28.2801 80.6052 28.253C80.67 27.732 80.8529 27.2324 81.1401 26.7917C81.4272 26.351 81.8112 25.9807 82.2632 25.7085C82.3006 25.6865 82.338 25.6646 82.3772 25.6443H82.3908C83.1809 25.2192 84.1066 25.1165 84.9716 25.358C85.8366 25.5995 86.5729 26.1661 87.0243 26.9377C87.0447 26.9698 87.0618 27.0019 87.0788 27.034C87.0958 27.0661 87.1248 27.1186 87.1469 27.1608C87.2555 27.3857 87.3393 27.6215 87.3971 27.8642C87.4158 27.947 87.4329 28.0332 87.4465 28.1144C87.4465 28.1448 87.4465 28.1769 87.4601 28.2091C87.4737 28.2412 87.4703 28.2953 87.4737 28.3392C87.4839 28.4441 87.489 28.5506 87.489 28.6588V41.17H85.7868C85.7868 43.165 86.163 44.8895 86.9698 46.3046C87.7279 47.6263 88.8643 48.6943 90.2347 49.3732H90.2433C91.6539 50.0171 93.1917 50.3395 94.744 50.3166C96.2256 50.3498 97.6935 50.0279 99.0234 49.3783V49.3783C99.9913 48.9087 100.856 48.253 101.567 47.4492V47.4492Z" fill="white"/>
<path d="M74.2933 33.2578C73.3032 31.3292 71.8017 29.7058 69.9508 28.5627V28.5627C68.1209 27.4029 66.0527 26.8179 63.7189 26.8179C61.9209 26.8015 60.1443 27.207 58.5339 28.0014V28.0014C56.9879 28.7489 55.6205 29.8159 54.5234 31.1309L53.0186 32.9247V30.5696H53.8698L53.2161 30.0285C53.426 29.7783 53.6439 29.5365 53.8698 29.3032C54.1421 29.0192 54.4264 28.747 54.7209 28.49V16.8749C54.7211 16.1985 54.52 15.5371 54.1428 14.9739C53.7657 14.4107 53.2293 13.9709 52.6011 13.7096C51.973 13.4483 51.2811 13.3773 50.6124 13.5055C49.9437 13.6337 49.3282 13.9554 48.843 14.4301L48.8226 14.4487C48.4966 14.7647 48.237 15.1419 48.059 15.5584C47.8811 15.9749 47.7882 16.4224 47.7859 16.8749V40.0037H48.6371L49.4882 39.9935V40.0037C49.5222 42.5397 50.1197 44.7951 51.2653 46.7868C52.383 48.7539 54.0006 50.3955 55.9567 51.5478H55.9652C57.933 52.6805 60.1629 53.2537 62.6789 53.2537C65.2322 53.2537 67.4775 52.6788 69.4436 51.5478H69.4521C71.4084 50.3953 73.0265 48.7538 74.1452 46.7868V46.7868C75.3214 44.7968 75.9172 42.5465 75.9172 40.0121C75.9172 37.4778 75.3742 35.2156 74.2933 33.2578ZM71.2956 45.2786C71.2956 45.2786 71.2956 45.2871 71.2956 45.2922C70.48 46.8293 69.2689 48.1244 67.7856 49.0455V49.0455C66.247 49.9478 64.4875 50.4106 62.701 50.3829C60.9184 50.4016 59.1639 49.9413 57.6232 49.0506H57.613H57.6028C56.1067 48.1284 54.8856 46.8263 54.0655 45.2786C53.2052 43.6555 52.7669 41.8446 52.7905 40.0104C52.7905 38.061 53.2093 36.2909 54.0706 34.7354C54.8897 33.2211 56.1061 31.9551 57.5909 31.0717V31.0717C59.1218 30.1461 60.8833 29.6653 62.6755 29.6836C64.4688 29.6564 66.2327 30.1379 67.7601 31.0717L67.7737 31.0801C69.2477 31.9588 70.4575 33.2141 71.2769 34.7152V34.7287C72.1706 36.2875 72.608 38.0526 72.608 40.0037C72.6358 41.845 72.1837 43.6621 71.2956 45.2786V45.2786Z" fill="white"/>
<path d="M8.37904 53.9008C12.9386 53.9008 16.6349 50.2296 16.6349 45.7009C16.6349 41.1722 12.9386 37.501 8.37904 37.501C3.81945 37.501 0.123169 41.1722 0.123169 45.7009C0.123169 50.2296 3.81945 53.9008 8.37904 53.9008Z" fill="white"/>
<path d="M8.37904 35.3031C12.9386 35.3031 16.6349 31.6319 16.6349 27.1032C16.6349 22.5745 12.9386 18.9033 8.37904 18.9033C3.81945 18.9033 0.123169 22.5745 0.123169 27.1032C0.123169 31.6319 3.81945 35.3031 8.37904 35.3031Z" fill="white"/>
<path d="M8.37904 16.7057C12.9386 16.7057 16.6349 12.9588 16.6349 8.33674C16.6349 3.71469 12.9386 -0.0322266 8.37904 -0.0322266C3.81945 -0.0322266 0.123169 3.71469 0.123169 8.33674C0.123169 12.9588 3.81945 16.7057 8.37904 16.7057Z" fill="#FFC700"/>
<path d="M27.1037 53.9008C31.6633 53.9008 35.3596 50.2296 35.3596 45.7009C35.3596 41.1722 31.6633 37.501 27.1037 37.501C22.5441 37.501 18.8478 41.1722 18.8478 45.7009C18.8478 50.2296 22.5441 53.9008 27.1037 53.9008Z" fill="white"/>
<path d="M27.1037 35.3031C31.6633 35.3031 35.3596 31.6319 35.3596 27.1032C35.3596 22.5745 31.6633 18.9033 27.1037 18.9033C22.5441 18.9033 18.8478 22.5745 18.8478 27.1032C18.8478 31.6319 22.5441 35.3031 27.1037 35.3031Z" fill="white"/>
<path d="M108.476 51.3144C108.469 50.4763 108.154 49.6697 107.589 49.0467C107.025 48.4237 106.25 48.0276 105.412 47.933C106.131 46.3836 106.495 44.6953 106.479 42.9894V42.144H103.262V42.9894H102.411C102.424 44.0635 102.129 45.119 101.56 46.0327V46.4097L102.089 46.7732C101.927 47.0091 101.75 47.2349 101.56 47.4495V50.3997C101.626 50.3389 101.691 50.278 101.754 50.2138C101.633 50.5682 101.573 50.9403 101.577 51.3144C101.576 51.3206 101.576 51.3268 101.577 51.333V51.3499C101.577 51.4057 101.577 51.4615 101.577 51.519C101.575 51.5364 101.575 51.554 101.577 51.5714C101.575 51.6057 101.575 51.6402 101.577 51.6745V51.732C101.608 51.978 101.665 52.22 101.747 52.4539C101.911 52.9365 102.182 53.3762 102.54 53.7406C102.552 53.7549 102.565 53.7685 102.579 53.7811C102.893 54.093 103.264 54.3417 103.672 54.5132C103.676 54.5145 103.68 54.5145 103.684 54.5132C104.484 54.8464 105.381 54.8687 106.197 54.5758H106.209C106.688 54.4012 107.122 54.1229 107.48 53.7608L107.499 53.7406C107.999 53.2329 108.327 52.5827 108.437 51.8808C108.437 51.847 108.445 51.8132 108.45 51.7777C108.456 51.7422 108.459 51.7066 108.461 51.6711C108.471 51.568 108.476 51.4632 108.476 51.3584V51.3448C108.478 51.3348 108.478 51.3245 108.476 51.3144V51.3144ZM105.635 42.9962V43.8415H105.604C105.625 43.5642 105.635 43.2819 105.635 42.9962V42.9962Z" fill="white"/>
</g>
<defs>
<clipPath id="clip0_384_8987">
<rect width="165" height="55" fill="white"/>
</clipPath>
</defs>
</svg>
